<svg height="512" viewBox="0 0 512 512" width="512" xmlns="http://www.w3.org/2000/svg"><g id="flat"><path d="m232 262.14v59.78q0 7.965-.56 15.92-.57 7.905-1.69 15.76l-2.01 14.06c-.49 3.39-.89 6.78-1.22 10.18q-.795 7.98-1.02 16-.255 8 .07 16 .195 5.175.63 10.35l.47 5.65 1.33 16 1.34 16 1.27 15.3a11.993 11.993 0 0 1 -14.87 12.63l-6.59-1.65-9.15-2.28-13.25 4.42c-.91.3-1.83.56-2.75.78a34 34 0 0 1 -18.75-.78l-6.4-2.14-6.85-2.28-9.26 2.31-6.48 1.62a12 12 0 0 1 -14.87-12.63l4.41-52.95a233.712 233.712 0 0 0 -1.54-52.53l-2.01-14.06q-1.125-7.845-1.69-15.76-.555-7.95-.56-15.92v-59.78a86.332 86.332 0 0 1 9.08-38.46l7.32-14.64a71.986 71.986 0 0 0 7.6-32.2v-23h64v23a71.986 71.986 0 0 0 7.6 32.2l7.32 14.64a86.332 86.332 0 0 1 9.08 38.46z" fill="#834b10"/><path d="m232 262.14v59.78q0 7.965-.56 15.92-.57 7.905-1.69 15.76l-2.01 14.06c-.49 3.39-.89 6.78-1.22 10.18q-.795 7.98-1.02 16-.255 8 .07 16 .195 5.175.63 10.35l.47 5.65 1.33 16 1.34 16 1.27 15.3a11.97 11.97 0 0 1 -5.35 11.01l-9.26-2.31-6.85 2.28-6.4 2.14a34 34 0 0 1 -18.75.78c-.92-.22-1.84-.48-2.75-.78l-13.25-4.42-9.15 2.28-6.59 1.65a11.993 11.993 0 0 1 -14.87-12.63l4.41-52.95a233.712 233.712 0 0 0 -1.54-52.53l-2.01-14.06q-1.125-7.845-1.69-15.76-.555-7.95-.56-15.92v-59.78a86.332 86.332 0 0 1 9.08-38.46l7.32-14.64a71.986 71.986 0 0 0 7.6-32.2v-23h48v23a71.986 71.986 0 0 0 7.6 32.2l7.32 14.64a86.332 86.332 0 0 1 9.08 38.46z" fill="#70400e"/><path d="m440 213.26v248.72a25.986 25.986 0 0 1 -33.14 25l-12.22-3.49-10.64-3.04a43.325 43.325 0 0 1 -48 0l-21.99 6.28-.87.25a25.993 25.993 0 0 1 -33.14-25v-248.72a143.62 143.62 0 0 1 25.95-82.34l11.97-17.1a99.951 99.951 0 0 0 18.08-57.34v-.48h48v.48a99.951 99.951 0 0 0 18.08 57.34l11.97 17.1a143.62 143.62 0 0 1 25.95 82.34z" fill="#72c5f3"/><path d="m440 213.26v248.72a25.978 25.978 0 0 1 -18.01 24.75l-21.99-6.28a42.554 42.554 0 0 1 -5.36 3.04 43.255 43.255 0 0 1 -42.64-3.04l-10.64 3.04-12.22 3.49a25.986 25.986 0 0 1 -33.14-25v-248.72a143.62 143.62 0 0 1 25.95-82.34l11.97-17.1a99.951 99.951 0 0 0 18.08-57.34v-.48h32v.48a99.951 99.951 0 0 0 18.08 57.34l11.97 17.1a143.62 143.62 0 0 1 25.95 82.34z" fill="#6cbae5"/><path d="m392.3 32v24h-64.3v-24a8 8 0 0 1 8-8h48.3a8 8 0 0 1 8 8z" fill="#489ad8"/><path d="m392.3 32v24h-48.6v-24a8 8 0 0 1 8-8h32.6a8 8 0 0 1 8 8z" fill="#428dc5"/><path d="m280 208h160v144h-160z" fill="#428dc5"/><path d="m408 264a8 8 0 0 1 -8-8v-16a8 8 0 0 1 16 0v16a8 8 0 0 1 -8 8z" fill="#6cbae5"/><path d="m408 328a8 8 0 0 1 -8-8v-32a8 8 0 0 1 16 0v32a8 8 0 0 1 -8 8z" fill="#6cbae5"/><path d="m232 262.14v59.78q0 7.965-.56 15.92h-110.88q-.555-7.95-.56-15.92v-59.78a85.427 85.427 0 0 1 2.44-20.3h107.12a85.427 85.427 0 0 1 2.44 20.3z" fill="#ea5245"/><path d="m232 262.14v59.78q0 7.965-.56 15.92h-94.88q-.555-7.95-.56-15.92v-59.78a85.427 85.427 0 0 1 2.44-20.3h91.12a85.427 85.427 0 0 1 2.44 20.3z" fill="#dc4d41"/><path d="m216 117.84v36h-80v-36a12 12 0 0 1 12-12h56a12 12 0 0 1 12 12z" fill="#ea5245"/><path d="m216 117.84v36h-64v-36a12 12 0 0 1 12-12h40a12 12 0 0 1 12 12z" fill="#dc4d41"/><g fill="#834b10"><path d="m226.52 377.84q-.795 7.98-1.02 16h-17.5a8 8 0 1 1 0-16z"/><path d="m226.67 425.84h-26.67a8 8 0 1 1 0-16h25.57q.195 5.175.63 10.35z"/><path d="m229.34 457.84h-21.34a8 8 0 1 1 0-16h20z"/></g><path d="m280 208h16v144h-16z" fill="#489ad8"/></g></svg>