<?xml version="1.0"?>
<svg xmlns="http://www.w3.org/2000/svg" xmlns:xlink="http://www.w3.org/1999/xlink" xmlns:svgjs="http://svgjs.com/svgjs" version="1.1" width="512" height="512" x="0" y="0" viewBox="0 0 512.008 512.008" style="enable-background:new 0 0 512 512" xml:space="preserve" class=""><g>
<g xmlns="http://www.w3.org/2000/svg">
	<path style="" d="M332.802,100.113c-2.219,0-4.403-0.87-6.033-2.5l-42.667-42.667c-3.337-3.337-3.337-8.73,0-12.066   c3.337-3.337,8.73-3.337,12.066,0l28.1,28.1V23.313c0-4.719,3.814-8.533,8.533-8.533c4.719,0,8.533,3.814,8.533,8.533V91.58   c0,3.447-2.074,6.571-5.265,7.885C335.012,99.9,333.903,100.113,332.802,100.113z" fill="#acfcd9" data-original="#79a73a" class=""/>
	<path style="" d="M332.802,100.113c-1.101,0-2.21-0.205-3.268-0.649c-3.191-1.323-5.265-4.437-5.265-7.885V23.313   c0-4.719,3.814-8.533,8.533-8.533c4.719,0,8.533,3.814,8.533,8.533V70.98l28.1-28.1c3.337-3.337,8.73-3.337,12.066,0   s3.337,8.73,0,12.066l-42.667,42.667C337.205,99.242,335.021,100.113,332.802,100.113z" fill="#acfcd9" data-original="#79a73a" class=""/>
</g>
<path xmlns="http://www.w3.org/2000/svg" style="" d="M409.602,245.18h-153.6V125.713c0-18.85,15.283-34.133,34.133-34.133h85.333  c18.85,0,34.133,15.283,34.133,34.133V245.18z" fill="#5dd9c1" data-original="#f7ba61" class=""/>
<path xmlns="http://www.w3.org/2000/svg" style="" d="M256.002,245.18h153.6v-82.978C373.907,189.465,314.959,229.103,256.002,245.18z" fill="#b084cc" data-original="#fbb540" class=""/>
<path xmlns="http://www.w3.org/2000/svg" style="" d="M8.535,321.98c-3.575,0-6.903-2.261-8.09-5.837c-1.493-4.471,0.922-9.31,5.393-10.795l25.6-8.533  c4.506-1.493,9.301,0.922,10.795,5.393s-0.922,9.31-5.393,10.795l-25.6,8.533C10.336,321.834,9.423,321.98,8.535,321.98z" fill="#acfcd9" data-original="#79a73a" class=""/>
<g xmlns="http://www.w3.org/2000/svg">
	<path style="" d="M59.735,339.046c-2.185,0-4.369-0.836-6.033-2.5l-51.2-51.2c-3.337-3.337-3.337-8.73,0-12.066   s8.73-3.337,12.066,0l51.2,51.2c3.337,3.337,3.337,8.73,0,12.066C64.105,338.21,61.92,339.046,59.735,339.046z" fill="#190933" data-original="#744630" class=""/>
</g>
<g xmlns="http://www.w3.org/2000/svg">
	<path style="" d="M366.935,211.046c-2.185,0-4.369-0.836-6.033-2.5l-34.133-34.133c-3.337-3.337-3.337-8.73,0-12.066   l29.867-29.867c3.337-3.337,8.73-3.337,12.066,0l34.133,34.133c3.337,3.337,3.337,8.73,0,12.066l-29.867,29.867   C371.305,210.21,369.12,211.046,366.935,211.046z M344.868,168.38l22.067,22.067l17.801-17.801l-22.067-22.067L344.868,168.38z" fill="#665687" data-original="#ea9d2d" class=""/>
	<path style="" d="M396.802,181.18c-2.185,0-4.369-0.836-6.033-2.5l-34.133-34.133c-3.337-3.337-3.337-8.73,0-12.066   l36.932-36.932c3.337-3.337,8.73-3.328,12.066-0.009c8.055,8.055,12.501,18.765,12.501,30.174v34.133c0,2.27-0.896,4.437-2.5,6.033   l-12.8,12.8C401.171,180.343,398.987,181.18,396.802,181.18z M374.735,138.513l22.067,22.067l4.267-4.267v-30.601   c0-3.883-0.862-7.646-2.492-11.042L374.735,138.513z" fill="#665687" data-original="#ea9d2d" class=""/>
	<path style="" d="M332.802,245.18c-2.185,0-4.369-0.836-6.033-2.5l-34.133-34.133c-3.337-3.337-3.337-8.73,0-12.066   l34.133-34.133c3.337-3.337,8.73-3.337,12.066,0l34.133,34.133c3.337,3.337,3.337,8.73,0,12.066l-34.133,34.133   C337.171,244.343,334.987,245.18,332.802,245.18z M310.735,202.513l22.067,22.067l22.067-22.067l-22.067-22.067L310.735,202.513z" fill="#665687" data-original="#ea9d2d" class=""/>
	<path style="" d="M332.802,176.913c-2.185,0-4.369-0.836-6.033-2.5l-29.867-29.867c-3.337-3.337-3.337-8.73,0-12.066   l29.867-29.867c3.337-3.337,8.73-3.337,12.066,0l29.867,29.867c3.337,3.337,3.337,8.73,0,12.066l-29.867,29.867   C337.171,176.077,334.987,176.913,332.802,176.913z M315.002,138.513l17.801,17.801l17.801-17.801l-17.801-17.801L315.002,138.513z   " fill="#665687" data-original="#ea9d2d" class=""/>
	<path style="" d="M332.802,117.18c-2.185,0-4.369-0.836-6.033-2.5l-17.067-17.067   c-2.441-2.441-3.174-6.11-1.852-9.301c1.314-3.191,4.437-5.265,7.885-5.265h34.133c3.447,0,6.571,2.074,7.885,5.265   c1.323,3.191,0.589,6.861-1.852,9.301l-17.067,17.067C337.171,116.343,334.987,117.18,332.802,117.18z" fill="#665687" data-original="#ea9d2d" class=""/>
	<path style="" d="M298.669,211.046c-2.185,0-4.369-0.836-6.033-2.5l-29.867-29.867c-3.337-3.337-3.337-8.73,0-12.066   l34.133-34.133c3.337-3.337,8.73-3.337,12.066,0l29.867,29.867c3.337,3.337,3.337,8.73,0,12.066l-34.133,34.133   C303.038,210.21,300.853,211.046,298.669,211.046z M280.868,172.646l17.801,17.801l22.067-22.067l-17.801-17.801L280.868,172.646z" fill="#665687" data-original="#ea9d2d" class=""/>
	<path style="" d="M362.669,147.046c-2.185,0-4.369-0.836-6.033-2.5l-29.867-29.867c-3.337-3.337-3.337-8.73,0-12.066   l17.067-17.067c1.596-1.604,3.763-2.5,6.033-2.5h25.6c11.409,0,22.118,4.446,30.174,12.501c3.328,3.337,3.328,8.73-0.009,12.066   l-36.932,36.932C367.038,146.21,364.853,147.046,362.669,147.046z M344.868,108.646l17.801,17.801l23.842-23.842   c-3.396-1.63-7.159-2.492-11.042-2.492h-22.067L344.868,108.646z" fill="#665687" data-original="#ea9d2d" class=""/>
	<path style="" d="M409.602,253.713h-68.267c-2.27,0-4.437-0.896-6.033-2.5l-8.533-8.533   c-3.337-3.337-3.337-8.73,0-12.066l64-64c3.337-3.337,8.73-3.337,12.066,0l12.8,12.8c1.604,1.596,2.5,3.763,2.5,6.033v59.733   C418.135,249.898,414.321,253.713,409.602,253.713z M344.868,236.646h44.134l-22.067-22.067L344.868,236.646z M379.002,202.513   l22.067,22.067v-35.601l-4.267-4.267L379.002,202.513z" fill="#665687" data-original="#ea9d2d" class=""/>
	<path style="" d="M341.335,253.713h-17.067c-3.447,0-6.571-2.074-7.885-5.265c-1.323-3.191-0.589-6.861,1.852-9.301   l8.533-8.533c3.337-3.337,8.73-3.337,12.066,0l8.533,8.533c2.441,2.441,3.174,6.11,1.852,9.301   C347.906,251.639,344.783,253.713,341.335,253.713z" fill="#665687" data-original="#ea9d2d" class=""/>
	<path style="" d="M409.602,193.98c-2.219,0-4.403-0.87-6.033-2.5l-12.8-12.8c-3.337-3.337-3.337-8.73,0-12.066   l12.8-12.8c2.441-2.449,6.11-3.183,9.301-1.852c3.191,1.314,5.265,4.437,5.265,7.885v25.6c0,3.447-2.074,6.571-5.265,7.885   C411.812,193.766,410.703,193.98,409.602,193.98z" fill="#665687" data-original="#ea9d2d" class=""/>
	<path style="" d="M302.935,147.046c-2.185,0-4.369-0.836-6.033-2.5l-36.932-36.932   c-3.337-3.337-3.337-8.73-0.009-12.066c8.055-8.064,18.765-12.501,30.174-12.501h25.6c2.27,0,4.437,0.896,6.033,2.5l17.067,17.067   c3.337,3.337,3.337,8.73,0,12.066l-29.867,29.867C307.305,146.21,305.12,147.046,302.935,147.046z M279.093,102.605l23.842,23.842   l17.801-17.801l-8.533-8.533h-22.067C286.253,100.113,282.49,100.966,279.093,102.605z" fill="#665687" data-original="#ea9d2d" class=""/>
	<path style="" d="M324.269,253.713h-68.267c-4.719,0-8.533-3.814-8.533-8.533v-59.733c0-2.27,0.896-4.437,2.5-6.033   l12.8-12.8c3.337-3.337,8.73-3.337,12.066,0l64,64c3.337,3.337,3.337,8.73,0,12.066l-8.533,8.533   C328.706,252.808,326.539,253.713,324.269,253.713z M276.602,236.646h44.134l-22.067-22.067L276.602,236.646z M264.535,188.979   v35.601l22.067-22.067l-17.801-17.801L264.535,188.979z" fill="#665687" data-original="#ea9d2d" class=""/>
	<path style="" d="M268.802,181.18c-2.185,0-4.369-0.836-6.033-2.5l-12.8-12.8c-1.604-1.604-2.5-3.763-2.5-6.033   v-34.133c0-11.409,4.446-22.118,12.501-30.174c3.337-3.319,8.73-3.328,12.066,0.009l36.932,36.932c3.337,3.337,3.337,8.73,0,12.066   l-34.133,34.133C273.171,180.343,270.987,181.18,268.802,181.18z M264.535,156.313l4.267,4.267l22.067-22.067l-23.842-23.842   c-1.63,3.396-2.492,7.159-2.492,11.042V156.313z" fill="#665687" data-original="#ea9d2d" class=""/>
	<path style="" d="M256.002,193.98c-1.101,0-2.21-0.205-3.268-0.649c-3.191-1.323-5.265-4.437-5.265-7.885v-25.6   c0-3.447,2.074-6.571,5.265-7.885c3.2-1.323,6.861-0.589,9.301,1.852l12.8,12.8c3.337,3.337,3.337,8.73,0,12.066l-12.8,12.8   C260.405,193.109,258.221,193.98,256.002,193.98z" fill="#665687" data-original="#ea9d2d" class=""/>
	<path style="" d="M256.002,253.713h68.267h17.067h68.267c4.224,0,7.561-3.115,8.252-7.134H247.75   C248.442,250.598,251.778,253.713,256.002,253.713z" fill="#665687" data-original="#ea9d2d" class=""/>
</g>
<path xmlns="http://www.w3.org/2000/svg" style="" d="M115.202,211.046L115.202,211.046c-35.345,0-64-28.655-64-64v-4.267h128v4.267  C179.202,182.391,150.547,211.046,115.202,211.046z" fill="#acfcd9" data-original="#89b140" class=""/>
<path xmlns="http://www.w3.org/2000/svg" style="" d="M72.706,142.78c0.009,17.613,10.82,34.108,28.382,40.26c22.238,7.799,46.583-3.908,54.383-26.146  c1.638-4.676,2.236-9.429,2.236-14.123H72.706V142.78z" fill="#b084cc" data-original="#fbb540" class=""/>
<g xmlns="http://www.w3.org/2000/svg">
	<path style="" d="M256.011,501.18h-0.026c-65.527,0-122.991-43.759-140.416-106.931L76.802,253.713   c0-4.71,3.823-8.533,8.533-8.533h341.333c4.71,0,8.533,3.823,8.533,8.533l-38.767,140.535   C379.01,457.421,321.547,501.18,256.011,501.18z" fill="#665687" data-original="#dbdbdb" class=""/>
	<path style="" d="M324.269,304.913c-4.719,0-8.533-3.814-8.533-8.533c0-4.719,3.814-8.533,8.533-8.533h93.867   c2.782,0,5.137,1.417,6.69,3.473l10.377-37.606c0-4.71-3.823-8.533-8.533-8.533H85.335c-4.71,0-8.533,3.823-8.533,8.533   l38.767,140.535c17.425,63.172,74.889,106.931,140.416,106.931h0.026c65.527,0,122.991-43.759,140.416-106.931l5.879-21.325   c-0.427,0.068-0.802,0.247-1.246,0.247h-42.667c-4.719,0-8.533-3.814-8.533-8.533c0-4.719,3.814-8.533,8.533-8.533h42.667   c2.048,0,3.857,0.819,5.325,2.022l5.385-19.524c-0.708,0.196-1.408,0.444-2.185,0.444h-68.267c-4.719,0-8.533-3.814-8.533-8.533   c0-4.719,3.814-8.533,8.533-8.533h68.267c2.381,0,4.523,0.981,6.067,2.543l5.581-20.241c-0.973,0.384-2.014,0.631-3.115,0.631   L324.269,304.913L324.269,304.913z" fill="#665687" data-original="#dbdbdb" class=""/>
</g>
<g xmlns="http://www.w3.org/2000/svg">
	<path style="" d="M384.267,424.38H127.738c24.96,46.498,73.779,76.8,128.256,76.8h0.026   C310.496,501.18,359.307,470.878,384.267,424.38z" fill="#acfcd9" data-original="#b9b9b9" class=""/>
	<path style="" d="M418.135,287.846h-93.867c-4.719,0-8.533,3.814-8.533,8.533c0,4.719,3.814,8.533,8.533,8.533h93.867   c1.109,0,2.15-0.247,3.115-0.631l3.575-12.962C423.273,289.263,420.917,287.846,418.135,287.846z" fill="#acfcd9" data-original="#b9b9b9" class=""/>
	<path style="" d="M409.602,321.98h-68.267c-4.719,0-8.533,3.814-8.533,8.533c0,4.719,3.814,8.533,8.533,8.533h68.267   c0.777,0,1.468-0.247,2.185-0.444l3.883-14.08C414.125,322.952,411.983,321.98,409.602,321.98z" fill="#acfcd9" data-original="#b9b9b9" class=""/>
	<path style="" d="M358.402,356.113c-4.719,0-8.533,3.814-8.533,8.533s3.814,8.533,8.533,8.533h42.667   c0.444,0,0.819-0.188,1.246-0.247l4.079-14.797c-1.468-1.203-3.277-2.022-5.325-2.022H358.402z" fill="#acfcd9" data-original="#b9b9b9" class=""/>
</g>
<circle xmlns="http://www.w3.org/2000/svg" style="" cx="102.402" cy="407.287" r="93.867" fill="#665687" data-original="#f26f41" class=""/>
<path xmlns="http://www.w3.org/2000/svg" style="" d="M102.402,458.513c44.544,0,81.758-31.061,91.375-72.687c-7.629-32.299-32.171-59.554-66.415-69.001  c-49.971-13.79-101.666,15.548-115.447,65.527c-0.341,1.237-0.538,2.483-0.828,3.721C20.798,427.571,57.943,458.513,102.402,458.513  z" fill="#b084cc" data-original="#f27332" class=""/>
<g xmlns="http://www.w3.org/2000/svg">
	<rect x="68.269" y="398.754" style="" width="17.067" height="17.067" fill="#5dd9c1" data-original="#d85021" class=""/>
	<rect x="68.269" y="449.954" style="" width="17.067" height="17.067" fill="#5dd9c1" data-original="#d85021" class=""/>
	<rect x="68.269" y="347.58" style="" width="17.067" height="17.067" fill="#5dd9c1" data-original="#d85021" class=""/>
	<rect x="42.669" y="373.18" style="" width="17.067" height="17.067" fill="#5dd9c1" data-original="#d85021" class=""/>
	<rect x="42.669" y="424.354" style="" width="17.067" height="17.067" fill="#5dd9c1" data-original="#d85021" class=""/>
</g>
<path xmlns="http://www.w3.org/2000/svg" style="" d="M416.062,499.959l-245.265,1.22c-9.788,0.051-17.988-7.398-18.876-17.152l0,0  c-0.862-9.549,5.564-18.227,14.95-20.164l240.427-49.809c19.959-4.139,39.074,10.035,40.917,30.336l1.664,18.347  C451.697,482.662,436.064,499.857,416.062,499.959z" fill="#665687" data-original="#f26b32" class=""/>
<g xmlns="http://www.w3.org/2000/svg">
	<path style="" d="M449.393,465.809c-3.447,0-6.596-2.091-7.91-5.333c-1.408-3.482-0.375-7.484,2.551-9.839   l47.906-38.613c3.695-2.97,9.054-2.381,11.998,1.28c2.961,3.678,2.381,9.045-1.28,11.998l-25.967,20.932l22.929-2.082   c4.625-0.461,8.841,3.038,9.267,7.723c0.427,4.702-3.029,8.849-7.731,9.276l-50.987,4.625   C449.905,465.8,449.641,465.809,449.393,465.809z" fill="#acfcd9" data-original="#79a73a" class=""/>
	<path style="" d="M503.46,495.181c-1.374,0-2.765-0.333-4.07-1.033l-54.076-29.363   c-4.139-2.253-5.675-7.433-3.422-11.571c2.253-4.13,7.415-5.666,11.571-3.422l54.076,29.363c4.139,2.253,5.675,7.433,3.422,11.571   C509.417,493.559,506.49,495.181,503.46,495.181z" fill="#acfcd9" data-original="#79a73a" class=""/>
</g>
<path xmlns="http://www.w3.org/2000/svg" style="" d="M448.224,444.39c-1.843-20.301-20.958-34.475-40.917-30.336l-67.669,14.02  c0.99,1.391,1.698,2.995,1.698,4.838v17.067c0,4.719-3.814,8.533-8.533,8.533c-4.719,0-8.533-3.814-8.533-8.533v-17.067  c0-0.614,0.222-1.152,0.35-1.732l-55.825,11.563c2.509,1.485,4.275,4.105,4.275,7.236v8.533c0,4.719-3.814,8.533-8.533,8.533  c-4.719,0-8.533-3.814-8.533-8.533v-8.533c0-1.886,0.734-3.533,1.766-4.949l-90.889,18.825c-9.387,1.946-15.821,10.624-14.95,20.164  c0.887,9.754,9.079,17.203,18.876,17.152l51.063-0.247V475.58c0-4.719,3.814-8.533,8.533-8.533s8.533,3.814,8.533,8.533v25.259  l56.653-0.282c-3.183-1.237-5.453-4.284-5.453-7.91v-25.6c0-4.719,3.814-8.533,8.533-8.533c4.719,0,8.533,3.814,8.533,8.533v25.6  c0,3.567-2.193,6.605-5.299,7.885l61.278-0.307c-2.807-1.399-4.779-4.224-4.779-7.578v-25.6c0-4.719,3.814-8.533,8.533-8.533  s8.533,3.814,8.533,8.533v25.6c0,3.328-1.954,6.127-4.727,7.535l45.321-0.222c20.002-0.102,35.635-17.297,33.826-37.214  L448.224,444.39z" fill="#665687" data-original="#f26b32" class=""/>
<g xmlns="http://www.w3.org/2000/svg">
	<path style="" d="M230.402,467.046c-4.719,0-8.533,3.814-8.533,8.533v25.344l17.067-0.085V475.58   C238.935,470.861,235.121,467.046,230.402,467.046z" fill="#5dd9c1" data-original="#d85021" class=""/>
	<path style="" d="M307.202,492.646v-25.6c0-4.719-3.814-8.533-8.533-8.533c-4.719,0-8.533,3.814-8.533,8.533v25.6   c0,3.627,2.27,6.673,5.453,7.91l6.315-0.034C305.009,499.251,307.202,496.213,307.202,492.646z" fill="#5dd9c1" data-original="#d85021" class=""/>
	<path style="" d="M375.469,492.646v-25.6c0-4.719-3.814-8.533-8.533-8.533s-8.533,3.814-8.533,8.533v25.6   c0,3.354,1.971,6.178,4.787,7.578l7.552-0.034C373.515,498.773,375.469,495.974,375.469,492.646z" fill="#5dd9c1" data-original="#d85021" class=""/>
	<path style="" d="M324.269,449.98c0,4.719,3.814,8.533,8.533,8.533c4.719,0,8.533-3.814,8.533-8.533v-17.067   c0-1.843-0.708-3.447-1.698-4.847l-15.027,3.115c-0.119,0.58-0.341,1.118-0.341,1.732V449.98z" fill="#5dd9c1" data-original="#d85021" class=""/>
	<path style="" d="M256.002,458.513c0,4.719,3.814,8.533,8.533,8.533c4.719,0,8.533-3.814,8.533-8.533v-8.533   c0-3.132-1.766-5.751-4.275-7.236l-11.025,2.287c-1.033,1.408-1.766,3.063-1.766,4.949V458.513z" fill="#5dd9c1" data-original="#d85021" class=""/>
</g>
<g xmlns="http://www.w3.org/2000/svg">
	<path style="" d="M125.877,67.703l-6.724-15.693l21.769-9.327l-14.822-16.666l12.757-11.341l22.673,25.515   c1.826,2.048,2.551,4.847,1.954,7.526c-0.589,2.671-2.441,4.898-4.958,5.982L125.877,67.703z" fill="#acfcd9" data-original="#79a73a" class=""/>
	
		<rect x="139.873" y="25.641" transform="matrix(-0.4992 0.8665 -0.8665 -0.4992 272.324 -89.0553)" style="" width="44.05" height="17.058" fill="#acfcd9" data-original="#79a73a" class=""/>
</g>
<path xmlns="http://www.w3.org/2000/svg" style="" d="M238.935,290.748L238.935,290.748c0-10.069-7.637-18.227-17.067-18.227l0,0  c-9.429,0-17.067,8.158-17.067,18.227s-7.637,18.227-17.067,18.227l0,0c-9.429,0-17.067-8.158-17.067-18.227V245.18h34.133h85.333  v63.795c0,7.074-11.46,21.538-25.6,21.538l0,0c-14.14,0-25.6-14.464-25.6-21.538V290.748z" fill="#190933" data-original="#f9e0a0" class=""/>
<path xmlns="http://www.w3.org/2000/svg" style="" d="M191.942,117.197c-6.059,0-12.1-1.886-17.331-5.658l-27.58-19.917  c-7.245-5.231-11.187-13.679-10.539-22.588s5.76-16.708,13.687-20.847l4.813-2.517l3.055-4.48  c5.043-7.373,13.278-11.46,22.306-11.145c8.926,0.41,16.862,5.316,21.205,13.124l16.538,29.713  c6.835,12.288,4.267,27.401-6.238,36.745l-0.009-0.009C206.039,114.662,198.974,117.197,191.942,117.197z" fill="#190933" data-original="#c7463b" class=""/>
<path xmlns="http://www.w3.org/2000/svg" style="" d="M230.402,467.046c4.719,0,8.533,3.814,8.533,8.533h51.2v-8.533c0-4.719,3.814-8.533,8.533-8.533  c4.719,0,8.533,3.814,8.533,8.533v8.533h51.2v-8.533c0-4.719,3.814-8.533,8.533-8.533s8.533,3.814,8.533,8.533v8.533h73.028  c1.212-4.045,1.801-8.354,1.391-12.834l-1.664-18.355c-1.843-20.301-20.958-34.475-40.917-30.336l-67.669,14.02  c0.99,1.391,1.698,2.995,1.698,4.838v17.067c0,4.719-3.814,8.533-8.533,8.533c-4.719,0-8.533-3.814-8.533-8.533v-17.067  c0-0.614,0.222-1.152,0.35-1.732l-55.825,11.563c2.509,1.485,4.275,4.105,4.275,7.236v8.533c0,4.719-3.814,8.533-8.533,8.533  c-4.719,0-8.533-3.814-8.533-8.533v-8.533c0-1.886,0.734-3.533,1.766-4.949l-90.889,18.825c-6.468,1.34-11.46,5.905-13.705,11.725  h68.693C221.869,470.861,225.683,467.046,230.402,467.046z" fill="#b084cc" data-original="#f27332" class=""/>
<path xmlns="http://www.w3.org/2000/svg" style="" d="M499.39,494.148c1.297,0.7,2.688,1.033,4.07,1.033c3.021,0,5.956-1.613,7.509-4.454  c2.253-4.139,0.717-9.327-3.422-11.571l-6.571-3.567h-35.772L499.39,494.148z" fill="#acfcd9" data-original="#6f9935" class=""/>
<g xmlns="http://www.w3.org/2000/svg">
</g>
<g xmlns="http://www.w3.org/2000/svg">
</g>
<g xmlns="http://www.w3.org/2000/svg">
</g>
<g xmlns="http://www.w3.org/2000/svg">
</g>
<g xmlns="http://www.w3.org/2000/svg">
</g>
<g xmlns="http://www.w3.org/2000/svg">
</g>
<g xmlns="http://www.w3.org/2000/svg">
</g>
<g xmlns="http://www.w3.org/2000/svg">
</g>
<g xmlns="http://www.w3.org/2000/svg">
</g>
<g xmlns="http://www.w3.org/2000/svg">
</g>
<g xmlns="http://www.w3.org/2000/svg">
</g>
<g xmlns="http://www.w3.org/2000/svg">
</g>
<g xmlns="http://www.w3.org/2000/svg">
</g>
<g xmlns="http://www.w3.org/2000/svg">
</g>
<g xmlns="http://www.w3.org/2000/svg">
</g>
</g></svg>
