<?xml version="1.0"?>
<svg xmlns="http://www.w3.org/2000/svg" xmlns:xlink="http://www.w3.org/1999/xlink" xmlns:svgjs="http://svgjs.com/svgjs" version="1.1" width="512" height="512" x="0" y="0" viewBox="0 0 512 512" style="enable-background:new 0 0 512 512" xml:space="preserve" class=""><g><g xmlns="http://www.w3.org/2000/svg" id="flat"><path d="m106.571 224a8 8 0 0 1 -8-8v-9.373a62.217 62.217 0 0 1 18.343-44.284 8 8 0 0 1 11.314 11.314 46.32 46.32 0 0 0 -13.657 32.97v9.373a8 8 0 0 1 -8 8z" fill="#190933" data-original="#5e8569" style="" class=""/><path d="m408 64-24-40-24 40-8 16 32 24 32-24z" fill="#190933" data-original="#55785f" style="" class=""/><path d="m428 416 4 8h-160l-8-8h-180a36 36 0 0 1 -36-36v-60h416v60a36 36 0 0 1 -36 36z" fill="#665687" data-original="#cd9c7a" style="" class=""/><g fill="#bd9070"><path d="m72 344h48v16h-48z" fill="#5dd9c1" data-original="#bd9070" style="" class=""/><path d="m136 344h16v16h-16z" fill="#5dd9c1" data-original="#bd9070" style="" class=""/><path d="m72 376h48v16h-48z" fill="#5dd9c1" data-original="#bd9070" style="" class=""/><path d="m136 376h16v16h-16z" fill="#5dd9c1" data-original="#bd9070" style="" class=""/><path d="m168 344h48v16h-48z" fill="#5dd9c1" data-original="#bd9070" style="" class=""/><path d="m232 344h16v16h-16z" fill="#5dd9c1" data-original="#bd9070" style="" class=""/><path d="m168 376h48v16h-48z" fill="#5dd9c1" data-original="#bd9070" style="" class=""/><path d="m232 376h16v16h-16z" fill="#5dd9c1" data-original="#bd9070" style="" class=""/><path d="m264 344h48v16h-48z" fill="#5dd9c1" data-original="#bd9070" style="" class=""/><path d="m328 344h16v16h-16z" fill="#5dd9c1" data-original="#bd9070" style="" class=""/><path d="m264 376h48v16h-48z" fill="#5dd9c1" data-original="#bd9070" style="" class=""/><path d="m328 376h16v16h-16z" fill="#5dd9c1" data-original="#bd9070" style="" class=""/><path d="m360 344h48v16h-48z" fill="#5dd9c1" data-original="#bd9070" style="" class=""/><path d="m424 344h16v16h-16z" fill="#5dd9c1" data-original="#bd9070" style="" class=""/><path d="m360 376h48v16h-48z" fill="#5dd9c1" data-original="#bd9070" style="" class=""/></g><path d="m456 142v146h-144v-146a30 30 0 0 1 30-30h84a30.029 30.029 0 0 1 30 30z" fill="#b084cc" data-original="#da922a" style="" class=""/><path d="m456 157.93-22.21-16.99 18.19-13.92a29.971 29.971 0 0 0 -11.53-11.31l-19.83 15.16-23.45-17.93 1.23-.94h-28.8l1.23.94-23.45 17.93-19.83-15.16a29.971 29.971 0 0 0 -11.53 11.31l18.19 13.92-22.21 16.99v20.2l23.21 18.05-23.21 17.75v20.2l22.97 17.87-22.97 17.87v10.13h13.03l22.97-17.86 22.97 17.86h26.06l22.97-17.86 22.97 17.86h13.03v-10.13l-22.97-17.87 22.97-17.87v-20.2l-23.21-17.75 23.21-18.05zm-72-34.92 23.45 17.93-23.45 17.93-23.45-17.93zm22.6 73.28-22.6 17.57-22.6-17.57 22.6-17.28zm-81.5-28.24 22.28-17.04 23.45 17.93-22.48 17.19zm0 56 23.16-17.71 22.71 17.66-22.97 17.86zm58.9 45.81-22.97-17.86 22.97-17.86 22.97 17.86zm58.9-45.81-22.9 17.81-22.97-17.86 22.71-17.66zm-23.25-37.92-22.48-17.19 23.45-17.93 22.28 17.04z" fill="#665687" data-original="#c38325" style="" class=""/><path d="m154.571 280h-96l-5.53-13.825a70.48 70.48 0 0 1 0-52.35 21.993 21.993 0 0 1 20.42-13.825 21.993 21.993 0 0 1 15.552 6.442 24.831 24.831 0 0 0 35.116 0 21.993 21.993 0 0 1 15.552-6.442 21.993 21.993 0 0 1 20.42 13.825 70.48 70.48 0 0 1 0 52.35z" fill="#acfcd9" data-original="#c7463b" style="" class=""/><path d="m408 112a156.947 156.947 0 0 0 -87.469-63.848l-.531-.152 22 64z" fill="#b084cc" data-original="#6b9777" style="" class=""/><path d="m360 112a156.947 156.947 0 0 1 87.469-63.848l.531-.152-22 64z" fill="#665687" data-original="#85bc94" style="" class=""/><path d="m318.956 241.391a244.606 244.606 0 0 1 -72.588-58.229l-10.775-12.705a51.942 51.942 0 0 0 -37.612-18.309l-3.839-.148-1.919 11.678a51.942 51.942 0 0 0 19.745 49.722 179.787 179.787 0 0 0 102.126 36.724l2.5.1a4.685 4.685 0 0 0 2.362-8.833z" fill="#b084cc" data-original="#da922a" style="" class=""/><path d="m311.912 241.155-20.5-2.562a244.631 244.631 0 0 1 -88.456-28.893l-14.562-8.09a51.941 51.941 0 0 0 -41.652-3.871l-3.644 1.215 2.32 11.6a51.945 51.945 0 0 0 36.009 39.566 179.791 179.791 0 0 0 108.516-1.644z" fill="#190933" data-original="#ea9d2d" style="" class=""/><path d="m163.554 289.253a183.8 183.8 0 0 0 136.682 2.914l6.93-2.607a45.713 45.713 0 0 0 29.534-45.586l15.3-26.308-26.308-15.3-14.783 34.734-33.654 12.388a131.777 131.777 0 0 1 -97.132-2.413l-4.2-1.787a45.068 45.068 0 0 0 -34.5-.334 8.661 8.661 0 0 0 -5.022 10.646l1.823 5.768a45.073 45.073 0 0 0 25.33 27.885z" fill="#5dd9c1" data-original="#fbb540" style="" class=""/><rect fill="#665687" height="40" rx="20" width="464" x="24" y="280" data-original="#cd9c7a" style="" class=""/><path d="m48 320h416v16h-416z" fill="#5dd9c1" data-original="#bd9070" style="" class=""/><path d="m432 376a8 8 0 0 1 -8-8v-14.111a36.742 36.742 0 0 1 20.422-33.044 8 8 0 1 1 7.156 14.31 20.832 20.832 0 0 0 -11.578 18.734v14.111a8 8 0 0 1 -8 8z" fill="#190933" data-original="#8f563b" style="" class=""/><circle cx="432" cy="424" fill="#b084cc" r="56" data-original="#fd9226" style="" class=""/><path d="m400 400h16v16h-16z" fill="#acfcd9" data-original="#e08122" style="" class=""/><path d="m432 400h16v16h-16z" fill="#acfcd9" data-original="#e08122" style="" class=""/><path d="m416 424h16v16h-16z" fill="#acfcd9" data-original="#e08122" style="" class=""/><path d="m384 416a56 56 0 1 1 -112 0z" fill="#b084cc" data-original="#fd9226" style="" class=""/><path d="m372.85 449.54a56.12 56.12 0 0 1 -11.31 11.31l-33.22-33.54-33.86 33.54a56.12 56.12 0 0 1 -11.31-11.31l33.86-33.54h22.62z" fill="#acfcd9" data-original="#e08122" style="" class=""/><path d="m392 416a64 64 0 0 1 -128 0h16a48 48 0 0 0 96 0z" fill="#acfcd9" data-original="#e08122" style="" class=""/></g></g></svg>
