<?xml version="1.0"?>
<svg xmlns="http://www.w3.org/2000/svg" xmlns:xlink="http://www.w3.org/1999/xlink" xmlns:svgjs="http://svgjs.com/svgjs" version="1.1" width="512" height="512" x="0" y="0" viewBox="0 0 512.001 512.001" style="enable-background:new 0 0 512 512" xml:space="preserve" class=""><g>
<path xmlns="http://www.w3.org/2000/svg" style="" d="M96.673,256.001l-74.398,45.144c-24.92,9.029-26.906,47.284-15.891,63.202l54.173,81.26  l14.816,45.144h45.144l12.27-45.144l-30.328-9.029c0,0-5.787-63.202-32.874-72.231c0,0,45.144,0,54.173-45.144" fill="#b084cc" data-original="#fdc9a6" class=""/>
<path xmlns="http://www.w3.org/2000/svg" style="" d="M78.615,301.145h-1.887c-13.426,0-25.488,7.458-31.475,19.466l-1.788,3.575  c-2.239,4.46-0.433,9.887,4.018,12.117c4.46,2.239,9.887,0.415,12.117-4.027l1.797-3.584c2.925-5.86,8.803-9.489,15.331-9.489h1.887  c4.993,0,9.029-4.045,9.029-9.029S83.608,301.145,78.615,301.145z" fill="#665687" data-original="#f6bb92" class=""/>
<path xmlns="http://www.w3.org/2000/svg" style="" d="M421.712,256.001l68.014-45.144c24.92-9.029,26.906-47.284,15.891-63.202l-54.173-81.26  L436.628,21.25h-45.144l-12.27,45.144l30.328,9.029c0,0,5.788,63.202,32.874,72.231c0,0-45.144,0-54.173,45.144" fill="#b084cc" data-original="#fdc9a6" class=""/>
<path xmlns="http://www.w3.org/2000/svg" style="" d="M435.264,210.856h-1.878c-4.993,0-9.029-4.045-9.029-9.029s4.036-9.029,9.029-9.029h1.878  c6.537,0,12.415-3.63,15.331-9.48l1.806-3.593c2.23-4.451,7.665-6.275,12.117-4.027c4.451,2.239,6.257,7.666,4.018,12.117  l-1.797,3.584C460.753,203.399,448.69,210.856,435.264,210.856z" fill="#665687" data-original="#f6bb92" class=""/>
<path xmlns="http://www.w3.org/2000/svg" style="" d="M258.29,456.559c-2.402,0-4.695-0.948-6.383-2.645L111.444,313.46  c-31.682-31.682-31.682-83.237,0-114.919c31.691-31.682,83.237-31.682,114.928,0l31.917,31.926l31.926-31.926  c15.34-15.349,35.754-23.8,57.451-23.8c21.705,0,42.12,8.451,57.46,23.8l0,0c31.682,31.682,31.682,83.237,0,114.919L264.673,453.913  C262.976,455.611,260.682,456.559,258.29,456.559z" fill="#acfcd9" data-original="#dc4d41" class=""/>
<g xmlns="http://www.w3.org/2000/svg">
	<path style="" d="M186.961,292.116c-9.959,0-18.058-8.099-18.058-18.058c0-9.959,8.099-18.058,18.058-18.058   s18.058,8.099,18.058,18.058C205.019,284.017,196.92,292.116,186.961,292.116z M186.961,274.058v0.009V274.058z" fill="#5dd9c1" data-original="#c7463b" class=""/>
	<path style="" d="M331.423,292.116c-9.959,0-18.058-8.099-18.058-18.058c0-9.959,8.099-18.058,18.058-18.058   c9.959,0,18.058,8.099,18.058,18.058C349.481,284.017,341.382,292.116,331.423,292.116z M331.423,274.058v0.009V274.058z" fill="#5dd9c1" data-original="#c7463b" class=""/>
	<path style="" d="M259.192,355.318c-1.743,0-3.494-0.506-5.011-1.517l-27.087-18.058   c-4.153-2.763-5.273-8.37-2.501-12.523c2.754-4.153,8.361-5.273,12.523-2.501l22.076,14.717l22.076-14.717   c4.162-2.772,9.76-1.652,12.523,2.501c2.772,4.144,1.652,9.76-2.501,12.523l-27.087,18.058   C262.687,354.813,260.944,355.318,259.192,355.318z" fill="#5dd9c1" data-original="#c7463b" class=""/>
</g>
<g xmlns="http://www.w3.org/2000/svg">
</g>
<g xmlns="http://www.w3.org/2000/svg">
</g>
<g xmlns="http://www.w3.org/2000/svg">
</g>
<g xmlns="http://www.w3.org/2000/svg">
</g>
<g xmlns="http://www.w3.org/2000/svg">
</g>
<g xmlns="http://www.w3.org/2000/svg">
</g>
<g xmlns="http://www.w3.org/2000/svg">
</g>
<g xmlns="http://www.w3.org/2000/svg">
</g>
<g xmlns="http://www.w3.org/2000/svg">
</g>
<g xmlns="http://www.w3.org/2000/svg">
</g>
<g xmlns="http://www.w3.org/2000/svg">
</g>
<g xmlns="http://www.w3.org/2000/svg">
</g>
<g xmlns="http://www.w3.org/2000/svg">
</g>
<g xmlns="http://www.w3.org/2000/svg">
</g>
<g xmlns="http://www.w3.org/2000/svg">
</g>
</g></svg>
