<?xml version="1.0"?>
<svg xmlns="http://www.w3.org/2000/svg" xmlns:xlink="http://www.w3.org/1999/xlink" xmlns:svgjs="http://svgjs.com/svgjs" version="1.1" width="512" height="512" x="0" y="0" viewBox="0 0 512 512" style="enable-background:new 0 0 512 512" xml:space="preserve" class=""><g>
<path xmlns="http://www.w3.org/2000/svg" style="" d="M62.411,66.507L43.864,98.639c-8.245,14.283,2.057,32.132,18.547,32.132l0,0  c16.49,0,26.792-17.849,18.547-32.132L62.411,66.507z" fill="#665687" data-original="#8aced8" class=""/>
<path xmlns="http://www.w3.org/2000/svg" style="" d="M62.411,66.507L43.864,98.639c-1.148,1.995-1.863,4.052-2.322,6.126  c1.951,9.384,9.993,17.178,20.868,17.178s18.926-7.795,20.868-17.178c-0.459-2.074-1.174-4.131-2.322-6.126L62.411,66.507z" fill="#b084cc" data-original="#b3e4e8" class=""/>
<path xmlns="http://www.w3.org/2000/svg" style="" d="M149.451,138.778l-18.547,32.132c-8.245,14.274,2.057,32.124,18.547,32.124l0,0  c16.49,0,26.792-17.849,18.547-32.132L149.451,138.778z" fill="#665687" data-original="#8aced8" class=""/>
<path xmlns="http://www.w3.org/2000/svg" style="" d="M149.451,138.778l-18.547,32.132c-1.148,1.995-1.863,4.052-2.322,6.126  c1.942,9.375,9.993,17.17,20.868,17.17c10.876,0,18.926-7.795,20.868-17.178c-0.459-2.074-1.174-4.131-2.322-6.126L149.451,138.778z  " fill="#b084cc" data-original="#b3e4e8" class=""/>
<path xmlns="http://www.w3.org/2000/svg" style="" d="M392.828,52.966h-52.966c-9.754,0-17.655-7.901-17.655-17.655V17.655  C322.207,7.901,330.108,0,339.862,0h52.966c9.754,0,17.655,7.901,17.655,17.655V35.31C410.483,45.065,402.573,52.966,392.828,52.966  z" fill="#190933" data-original="#6fbbc6" class=""/>
<path xmlns="http://www.w3.org/2000/svg" style="" d="M455.662,185.485v-0.212c19.006-0.565,34.269-16.057,34.269-35.204  c0-53.628-43.476-97.103-97.103-97.103h-52.966c-53.628,0-97.103,43.476-97.103,97.103c0,19.112,15.21,34.578,34.163,35.196v0.23  c-18.962,0.618-34.163,16.084-34.163,35.196v44.138c0,19.5,15.81,35.31,35.31,35.31h176.552c19.5,0,35.31-15.81,35.31-35.31V220.69  C489.931,201.543,474.668,186.05,455.662,185.485z" fill="#b084cc" data-original="#b3e4e8" class=""/>
<path xmlns="http://www.w3.org/2000/svg" style="" d="M489.931,264.828v-26.483H242.759v26.483c0,19.5,15.81,35.31,35.31,35.31  c-19.5,0-35.31,15.81-35.31,35.31V476.69c0,19.5,15.81,35.31,35.31,35.31h176.552c19.5,0,35.31-15.81,35.31-35.31V335.448  c0-19.5-15.81-35.31-35.31-35.31C474.121,300.138,489.931,284.328,489.931,264.828z" fill="#665687" data-original="#8aced8" class=""/>
<path xmlns="http://www.w3.org/2000/svg" style="" d="M489.419,481.774H243.271C245.76,498.847,260.308,512,278.069,512h176.552  C472.382,512,486.93,498.847,489.419,481.774z" fill="#190933" data-original="#6fbbc6" class=""/>
<path xmlns="http://www.w3.org/2000/svg" style="" d="M136.81,353.103c22.793,0,32.512-5.809,44.156-10.761l3.407-1.651l5.42-75.864H22.069l5.385,75.388  c7.45-2.701,16.349-4.767,29.89-4.767C97.077,335.448,97.077,353.103,136.81,353.103z" fill="#acfcd9" data-original="#eaeae8" class=""/>
<g xmlns="http://www.w3.org/2000/svg">
	<path id="SVGCleanerId_0" style="" d="M180.966,342.343c-11.644,4.952-21.363,10.761-44.156,10.761   c-39.733,0-39.733-17.655-79.466-17.655c-13.542,0-22.431,2.066-29.89,4.767L39.724,512h132.414l12.235-171.317L180.966,342.343z" fill="#b084cc" data-original="#b3e4e8" class=""/>
</g>
<g xmlns="http://www.w3.org/2000/svg">
	<path id="SVGCleanerId_0_1_" style="" d="M180.966,342.343c-11.644,4.952-21.363,10.761-44.156,10.761   c-39.733,0-39.733-17.655-79.466-17.655c-13.542,0-22.431,2.066-29.89,4.767L39.724,512h132.414l12.235-171.317L180.966,342.343z" fill="#b084cc" data-original="#b3e4e8" class=""/>
</g>
<g xmlns="http://www.w3.org/2000/svg">
	<path id="SVGCleanerId_0_2_" style="" d="M180.966,342.343c-11.644,4.952-21.363,10.761-44.156,10.761   c-39.733,0-39.733-17.655-79.466-17.655c-13.542,0-22.431,2.066-29.89,4.767L39.724,512h132.414l12.235-171.317L180.966,342.343z" fill="#b084cc" data-original="#b3e4e8" class=""/>
</g>
<polygon xmlns="http://www.w3.org/2000/svg" style="" points="37.835,485.517 39.724,512 172.138,512 174.027,485.517 " fill="#665687" data-original="#8aced8" class=""/>
<g xmlns="http://www.w3.org/2000/svg">
</g>
<g xmlns="http://www.w3.org/2000/svg">
</g>
<g xmlns="http://www.w3.org/2000/svg">
</g>
<g xmlns="http://www.w3.org/2000/svg">
</g>
<g xmlns="http://www.w3.org/2000/svg">
</g>
<g xmlns="http://www.w3.org/2000/svg">
</g>
<g xmlns="http://www.w3.org/2000/svg">
</g>
<g xmlns="http://www.w3.org/2000/svg">
</g>
<g xmlns="http://www.w3.org/2000/svg">
</g>
<g xmlns="http://www.w3.org/2000/svg">
</g>
<g xmlns="http://www.w3.org/2000/svg">
</g>
<g xmlns="http://www.w3.org/2000/svg">
</g>
<g xmlns="http://www.w3.org/2000/svg">
</g>
<g xmlns="http://www.w3.org/2000/svg">
</g>
<g xmlns="http://www.w3.org/2000/svg">
</g>
</g></svg>
