<?xml version="1.0"?>
<svg xmlns="http://www.w3.org/2000/svg" xmlns:xlink="http://www.w3.org/1999/xlink" xmlns:svgjs="http://svgjs.com/svgjs" version="1.1" width="512" height="512" x="0" y="0" viewBox="0 0 512 512" style="enable-background:new 0 0 512 512" xml:space="preserve" class=""><g>
<g xmlns="http://www.w3.org/2000/svg">
	<path style="" d="M105.779,512c-4.306,0-7.797-3.491-7.797-7.797v-13.515c0-4.306,3.491-7.797,7.797-7.797   s7.797,3.491,7.797,7.797v13.515C113.576,508.509,110.085,512,105.779,512z" fill="#190933" data-original="#253a4c" class=""/>
	<path style="" d="M408.301,512c-4.306,0-7.797-3.491-7.797-7.797v-13.515c0-4.306,3.491-7.797,7.797-7.797   s7.797,3.491,7.797,7.797v13.515C416.096,508.509,412.607,512,408.301,512z" fill="#190933" data-original="#253a4c" class=""/>
</g>
<path xmlns="http://www.w3.org/2000/svg" style="" d="M415.833,490.688H96.167c-7.61,0-13.779-6.169-13.779-13.779V13.779C82.388,6.169,88.557,0,96.167,0  h319.667c7.61,0,13.779,6.169,13.779,13.779V476.91C429.612,484.519,423.443,490.688,415.833,490.688z" fill="#665687" data-original="#455d75" class=""/>
<path xmlns="http://www.w3.org/2000/svg" style="" d="M415.288,0h-59.291c7.911,0,14.324,6.413,14.324,14.324v462.04c0,7.911-6.413,14.324-14.324,14.324  h59.291c7.911,0,14.324-6.413,14.324-14.324V14.324C429.612,6.413,423.199,0,415.288,0z" fill="#190933" data-original="#3b4f66" class=""/>
<path xmlns="http://www.w3.org/2000/svg" style="" d="M329.874,279.391H118.71c-2.549,0-4.615-2.066-4.615-4.615V36.842c0-2.549,2.066-4.615,4.615-4.615  h211.164c2.549,0,4.615,2.066,4.615,4.615v237.934C334.489,277.325,332.423,279.391,329.874,279.391z" fill="#ffffff" data-original="#f3e8d6" class=""/>
<path xmlns="http://www.w3.org/2000/svg" style="" d="M168.95,114.615h-54.854V64.199c0-3.591,2.911-6.502,6.502-6.502h41.85  c3.591,0,6.502,2.911,6.502,6.502V114.615z" fill="#5dd9c1" data-original="#ff8dc8" class=""/>
<path xmlns="http://www.w3.org/2000/svg" style="" d="M223.804,114.615H168.95V64.199c0-3.591,2.911-6.502,6.502-6.502h41.85  c3.591,0,6.502,2.911,6.502,6.502V114.615z" fill="#acfcd9" data-original="#00c6c8" class=""/>
<path xmlns="http://www.w3.org/2000/svg" style="" d="M279.109,114.615h-55.275V64.199c0-3.591,2.911-6.502,6.502-6.502h42.272  c3.591,0,6.502,2.911,6.502,6.502v50.416H279.109z" fill="#b084cc" data-original="#77d057" class=""/>
<path xmlns="http://www.w3.org/2000/svg" style="" d="M334.489,114.615h-55.38V64.199c0-3.591,2.911-6.502,6.502-6.502h42.376  c3.591,0,6.502,2.911,6.502,6.502L334.489,114.615L334.489,114.615z" fill="#acfcd9" data-original="#6186e4" class=""/>
<path xmlns="http://www.w3.org/2000/svg" style="" d="M168.95,197.003h-54.854v-50.416c0-3.591,2.911-6.502,6.502-6.502h41.85  c3.591,0,6.502,2.911,6.502,6.502V197.003z" fill="#b084cc" data-original="#77d057" class=""/>
<path xmlns="http://www.w3.org/2000/svg" style="" d="M223.804,197.003H168.95v-50.416c0-3.591,2.911-6.502,6.502-6.502h41.85  c3.591,0,6.502,2.911,6.502,6.502V197.003z" fill="#665687" data-original="#fdc74f" class=""/>
<path xmlns="http://www.w3.org/2000/svg" style="" d="M278.688,197.003h-54.854v-50.416c0-3.591,2.911-6.502,6.502-6.502h41.85  c3.591,0,6.502,2.911,6.502,6.502V197.003z" fill="#acfcd9" data-original="#5bdcfd" class=""/>
<path xmlns="http://www.w3.org/2000/svg" style="" d="M334.489,197.003h-55.801v-50.36c0-3.622,2.936-6.558,6.558-6.558h42.686  c3.622,0,6.558,2.936,6.558,6.558v50.36H334.489z" fill="#5dd9c1" data-original="#ff8dc8" class=""/>
<g xmlns="http://www.w3.org/2000/svg">
	<rect x="113.45" y="106.82" style="" width="221.53" height="15.594" fill="#190933" data-original="#253a4c" class=""/>
	<rect x="113.32" y="189.21" style="" width="221.82" height="15.594" fill="#190933" data-original="#253a4c" class=""/>
</g>
<path xmlns="http://www.w3.org/2000/svg" style="" d="M149.961,279.391h-15.594V231.27c0-3.28,2.659-5.938,5.938-5.938h3.718  c3.28,0,5.938,2.659,5.938,5.938L149.961,279.391L149.961,279.391z" fill="#5dd9c1" data-original="#ea3939" class=""/>
<path xmlns="http://www.w3.org/2000/svg" style="" d="M183.113,279.391h-15.594V231.27c0-3.28,2.659-5.938,5.938-5.938h3.718  c3.28,0,5.938,2.659,5.938,5.938L183.113,279.391L183.113,279.391z" fill="#665687" data-original="#fdc74f" class=""/>
<path xmlns="http://www.w3.org/2000/svg" style="" d="M362.211,283.029h41.238c6.028,0,10.915-4.887,10.915-10.915V39.504  c0-6.028-4.887-10.915-10.915-10.915h-41.238c-6.028,0-10.915,4.887-10.915,10.915v232.61  C351.296,278.143,356.183,283.029,362.211,283.029z" fill="#ffffff" data-original="#f3e8d6" class=""/>
<path xmlns="http://www.w3.org/2000/svg" style="" d="M218.055,279.391h-15.594V231.27c0-3.28,2.659-5.938,5.938-5.938h3.718  c3.28,0,5.938,2.659,5.938,5.938L218.055,279.391L218.055,279.391z" fill="#5dd9c1" data-original="#ea3939" class=""/>
<path xmlns="http://www.w3.org/2000/svg" style="" d="M251.206,279.391h-15.594V231.27c0-3.28,2.659-5.938,5.938-5.938h3.718  c3.28,0,5.938,2.659,5.938,5.938L251.206,279.391L251.206,279.391z" fill="#b084cc" data-original="#77d057" class=""/>
<path xmlns="http://www.w3.org/2000/svg" style="" d="M281.586,279.391h-15.594V231.27c0-3.28,2.659-5.938,5.938-5.938h3.718  c3.28,0,5.938,2.659,5.938,5.938L281.586,279.391L281.586,279.391z" fill="#acfcd9" data-original="#6186e4" class=""/>
<path xmlns="http://www.w3.org/2000/svg" style="" d="M314.737,279.391h-15.594V231.27c0-3.28,2.659-5.938,5.938-5.938h3.718  c3.28,0,5.938,2.659,5.938,5.938L314.737,279.391L314.737,279.391z" fill="#665687" data-original="#fdc74f" class=""/>
<g xmlns="http://www.w3.org/2000/svg">
	<circle style="" cx="370.87" cy="119.01" r="7.797" fill="#b084cc" data-original="#d8cab8" class=""/>
	<circle style="" cx="395.82" cy="119.01" r="7.797" fill="#b084cc" data-original="#d8cab8" class=""/>
	<circle style="" cx="370.87" cy="144.22" r="7.797" fill="#b084cc" data-original="#d8cab8" class=""/>
	<circle style="" cx="395.82" cy="144.22" r="7.797" fill="#b084cc" data-original="#d8cab8" class=""/>
	<circle style="" cx="370.87" cy="169.95" r="7.797" fill="#b084cc" data-original="#d8cab8" class=""/>
	<circle style="" cx="383.609" cy="193.47" r="7.797" fill="#b084cc" data-original="#d8cab8" class=""/>
	<circle style="" cx="395.82" cy="169.95" r="7.797" fill="#b084cc" data-original="#d8cab8" class=""/>
</g>
<path xmlns="http://www.w3.org/2000/svg" style="" d="M399.26,88.669h-31.302c-2.408,0-4.361-1.952-4.361-4.361v-39.1c0-2.408,1.952-4.361,4.361-4.361  h31.302c2.408,0,4.361,1.952,4.361,4.361v39.099C403.622,86.716,401.67,88.669,399.26,88.669z" fill="#190933" data-original="#253a4c" class=""/>
<path xmlns="http://www.w3.org/2000/svg" style="" d="M393.992,82.373h-20.764c-2.408,0-4.361-1.952-4.361-4.361v-0.345c0-2.408,1.952-4.361,4.361-4.361  h20.764c2.408,0,4.361,1.952,4.361,4.361v0.345C398.353,80.42,396.401,82.373,393.992,82.373z" fill="#5dd9c1" data-original="#ff8dc8" class=""/>
<path xmlns="http://www.w3.org/2000/svg" style="" d="M393.992,56.138h-20.764c-2.408,0-4.361-1.952-4.361-4.361v-0.345c0-2.408,1.952-4.361,4.361-4.361  h20.764c2.408,0,4.361,1.952,4.361,4.361v0.345C398.353,54.186,396.401,56.138,393.992,56.138z" fill="#acfcd9" data-original="#00c6c8" class=""/>
<path xmlns="http://www.w3.org/2000/svg" style="" d="M399.26,272.937h-31.302c-2.408,0-4.361-1.952-4.361-4.361v-39.099c0-2.408,1.952-4.361,4.361-4.361  h31.302c2.408,0,4.361,1.952,4.361,4.361v39.099C403.622,270.984,401.67,272.937,399.26,272.937z" fill="#190933" data-original="#253a4c" class=""/>
<path xmlns="http://www.w3.org/2000/svg" style="" d="M290.937,436.954H157.648c-7.03,0-12.729-5.699-12.729-12.729v-77.267  c0-7.03,5.699-12.729,12.729-12.729h133.288c7.03,0,12.729,5.699,12.729,12.729v77.267  C303.665,431.255,297.967,436.954,290.937,436.954z" fill="#665687" data-original="#455d75" class=""/>
<g xmlns="http://www.w3.org/2000/svg">
	<path style="" d="M290.432,444.751h-132.28c-11.596,0-21.03-9.434-21.03-21.03v-76.259   c0-11.596,9.434-21.03,21.03-21.03h132.28c11.596,0,21.03,9.434,21.03,21.03v76.259   C311.463,435.317,302.029,444.751,290.432,444.751z M158.152,342.026c-2.998,0-5.437,2.439-5.437,5.436v76.259   c0,2.997,2.439,5.436,5.437,5.436h132.28c2.998,0,5.437-2.439,5.437-5.436v-76.259c0-2.997-2.439-5.436-5.437-5.436H158.152z" fill="#ffffff" data-original="#f3e8d6" class=""/>
	<path style="" d="M403.622,412.102c-4.306,0-7.797-3.491-7.797-7.797v-18.713c0-4.306,3.491-7.797,7.797-7.797   s7.797,3.491,7.797,7.797v18.713C411.419,408.611,407.928,412.102,403.622,412.102z" fill="#ffffff" data-original="#f3e8d6" class=""/>
</g>
<g xmlns="http://www.w3.org/2000/svg">
	<path style="" d="M134.852,122.412c-4.306,0-7.797-3.491-7.797-7.797s3.491-7.797,7.797-7.797   c3.057,0,5.545-2.487,5.545-5.545c0-3.057-2.487-5.544-5.545-5.544c-4.306,0-7.797-3.491-7.797-7.797s3.491-7.797,7.797-7.797   c11.656,0,21.139,9.483,21.139,21.138C155.99,112.929,146.508,122.412,134.852,122.412z" fill="#190933" data-original="#253a4c" class=""/>
	<path style="" d="M190.039,122.412c-4.306,0-7.797-3.491-7.797-7.797s3.491-7.797,7.797-7.797   c3.057,0,5.544-2.487,5.544-5.545c0-3.057-2.487-5.544-5.544-5.544c-4.306,0-7.797-3.491-7.797-7.797s3.491-7.797,7.797-7.797   c11.655,0,21.138,9.483,21.138,21.138C211.177,112.929,201.694,122.412,190.039,122.412z" fill="#190933" data-original="#253a4c" class=""/>
	<path style="" d="M244.536,122.412c-4.306,0-7.797-3.491-7.797-7.797s3.491-7.797,7.797-7.797   c3.057,0,5.545-2.487,5.545-5.545c0-3.057-2.487-5.544-5.545-5.544c-4.306,0-7.797-3.491-7.797-7.797s3.491-7.797,7.797-7.797   c11.656,0,21.139,9.483,21.139,21.138C265.674,112.929,256.191,122.412,244.536,122.412z" fill="#190933" data-original="#253a4c" class=""/>
	<path style="" d="M300.27,122.412c-4.306,0-7.797-3.491-7.797-7.797s3.491-7.797,7.797-7.797   c3.057,0,5.544-2.487,5.544-5.545c0-3.057-2.487-5.544-5.544-5.544c-4.306,0-7.797-3.491-7.797-7.797s3.491-7.797,7.797-7.797   c11.655,0,21.138,9.483,21.138,21.138C321.408,112.929,311.924,122.412,300.27,122.412z" fill="#190933" data-original="#253a4c" class=""/>
	<path style="" d="M134.852,204.8c-4.306,0-7.797-3.491-7.797-7.797s3.491-7.797,7.797-7.797   c3.057,0,5.545-2.487,5.545-5.545c0-3.057-2.487-5.544-5.545-5.544c-4.306,0-7.797-3.491-7.797-7.797s3.491-7.797,7.797-7.797   c11.656,0,21.139,9.483,21.139,21.138C155.99,195.317,146.508,204.8,134.852,204.8z" fill="#190933" data-original="#253a4c" class=""/>
	<path style="" d="M190.039,204.8c-4.306,0-7.797-3.491-7.797-7.797s3.491-7.797,7.797-7.797   c3.057,0,5.544-2.487,5.544-5.545c0-3.057-2.487-5.544-5.544-5.544c-4.306,0-7.797-3.491-7.797-7.797s3.491-7.797,7.797-7.797   c11.655,0,21.138,9.483,21.138,21.138C211.177,195.317,201.694,204.8,190.039,204.8z" fill="#190933" data-original="#253a4c" class=""/>
	<path style="" d="M244.536,204.8c-4.306,0-7.797-3.491-7.797-7.797s3.491-7.797,7.797-7.797   c3.057,0,5.545-2.487,5.545-5.545c0-3.057-2.487-5.544-5.545-5.544c-4.306,0-7.797-3.491-7.797-7.797s3.491-7.797,7.797-7.797   c11.656,0,21.139,9.483,21.139,21.138C265.674,195.317,256.191,204.8,244.536,204.8z" fill="#190933" data-original="#253a4c" class=""/>
	<path style="" d="M299.678,204.8c-4.306,0-7.797-3.491-7.797-7.797s3.491-7.797,7.797-7.797   c3.184,0,5.775-2.487,5.775-5.545c0-3.057-2.59-5.544-5.775-5.544c-4.306,0-7.797-3.491-7.797-7.797s3.491-7.797,7.797-7.797   c11.783,0,21.369,9.483,21.369,21.138C321.047,195.317,311.461,204.8,299.678,204.8z" fill="#190933" data-original="#253a4c" class=""/>
</g>
<ellipse xmlns="http://www.w3.org/2000/svg" style="" cx="141.52" cy="72.64" rx="14.468" ry="6.281" fill="#b084cc" data-original="#ffffff" class=""/>
<ellipse xmlns="http://www.w3.org/2000/svg" style="" cx="196.71" cy="154.62" rx="14.468" ry="6.281" fill="#b084cc" data-original="#fce6ac" class=""/>
<ellipse xmlns="http://www.w3.org/2000/svg" style="" cx="250.08" cy="72.64" rx="14.468" ry="6.281" fill="#665687" data-original="#abff9c" class=""/>
<g xmlns="http://www.w3.org/2000/svg">
</g>
<g xmlns="http://www.w3.org/2000/svg">
</g>
<g xmlns="http://www.w3.org/2000/svg">
</g>
<g xmlns="http://www.w3.org/2000/svg">
</g>
<g xmlns="http://www.w3.org/2000/svg">
</g>
<g xmlns="http://www.w3.org/2000/svg">
</g>
<g xmlns="http://www.w3.org/2000/svg">
</g>
<g xmlns="http://www.w3.org/2000/svg">
</g>
<g xmlns="http://www.w3.org/2000/svg">
</g>
<g xmlns="http://www.w3.org/2000/svg">
</g>
<g xmlns="http://www.w3.org/2000/svg">
</g>
<g xmlns="http://www.w3.org/2000/svg">
</g>
<g xmlns="http://www.w3.org/2000/svg">
</g>
<g xmlns="http://www.w3.org/2000/svg">
</g>
<g xmlns="http://www.w3.org/2000/svg">
</g>
</g></svg>
