<?xml version="1.0"?>
<svg xmlns="http://www.w3.org/2000/svg" xmlns:xlink="http://www.w3.org/1999/xlink" xmlns:svgjs="http://svgjs.com/svgjs" version="1.1" width="512" height="512" x="0" y="0" viewBox="0 0 512 512" style="enable-background:new 0 0 512 512" xml:space="preserve" class=""><g><g xmlns="http://www.w3.org/2000/svg" id="flat"><path d="m448 488h-224a16 16 0 0 1 -16-16v-256l-16-32v-136a24 24 0 0 1 24-24h240a24 24 0 0 1 24 24v136l-16 32v256a16 16 0 0 1 -16 16z" fill="#b084cc" data-original="#4799cf" style="" class=""/><path d="m240 72h192v112h-192z" fill="#665687" data-original="#37c9c3" style="" class=""/><path d="m240 72h184v104h-184z" fill="#3bd6d0" data-original="#3bd6d0" style="" class=""/><path d="m312 216h48v48h-48z" fill="#acfcd9" data-original="#fbb540" style="" class=""/><path d="m384 216h48v48h-48z" fill="#acfcd9" data-original="#fbb540" style="" class=""/><path d="m312 296h48v48h-48z" fill="#acfcd9" data-original="#fbb540" style="" class=""/><path d="m302 320h-94v-16h104v6a10 10 0 0 1 -10 10z" fill="#190933" data-original="#428dc5" style="" class=""/><path d="m240 312h48v32h-48z" fill="#acfcd9" data-original="#fbb540" style="" class=""/><path d="m384 296h48v48h-48z" fill="#acfcd9" data-original="#fbb540" style="" class=""/><path d="m312 376h48v48h-48z" fill="#acfcd9" data-original="#fbb540" style="" class=""/><path d="m240 376h48v48h-48z" fill="#acfcd9" data-original="#fbb540" style="" class=""/><path d="m384 376h48v48h-48z" fill="#acfcd9" data-original="#fbb540" style="" class=""/><path d="m368 448h96v16h-96z" fill="#190933" data-original="#6cbae5" style="" class=""/><path d="m320 448h32v16h-32z" fill="#190933" data-original="#6cbae5" style="" class=""/><path d="m378.134 131.137a55.952 55.952 0 0 0 -84.268 0l-12.037-10.537a71.952 71.952 0 0 1 108.342 0z" fill="#665687" data-original="#37c9c3" style="" class=""/><path d="m360.077 146.937a31.97 31.97 0 0 0 -48.154 0l-12.037-10.537a47.971 47.971 0 0 1 72.228 0z" fill="#665687" data-original="#37c9c3" style="" class=""/><path d="m342.011 162.744a7.956 7.956 0 0 0 -12.022 0l-12.037-10.544a23.954 23.954 0 0 1 36.1 0z" fill="#665687" data-original="#37c9c3" style="" class=""/><path d="m208 448h96v16h-96z" fill="#190933" data-original="#6cbae5" style="" class=""/><rect fill="#665687" height="192" rx="8" width="288" x="24" y="120" data-original="#dc4d41" style="" class=""/><path d="m56 152h64v48h-64z" fill="#acfcd9" data-original="#ea9d2d" style="" class=""/><path d="m56 168h24v16h-24z" fill="#5dd9c1" data-original="#da922a" style="" class=""/><path d="m96 168h24v16h-24z" fill="#5dd9c1" data-original="#da922a" style="" class=""/><circle cx="232" cy="176" fill="#acfcd9" r="24" data-original="#ea9d2d" style="" class=""/><circle cx="256" cy="176" fill="#b084cc" r="24" data-original="#4799cf" style="" class=""/><path d="m48 240h40v16h-40z" fill="#5dd9c1" data-original="#b94137" style="" class=""/><path d="m104 240h32v16h-32z" fill="#5dd9c1" data-original="#b94137" style="" class=""/><path d="m152 240h32v16h-32z" fill="#5dd9c1" data-original="#b94137" style="" class=""/><path d="m48 272h88v16h-88z" fill="#5dd9c1" data-original="#b94137" style="" class=""/><path d="m152 272h32v16h-32z" fill="#5dd9c1" data-original="#b94137" style="" class=""/><path d="m232 248h48v32h-48z" fill="#5dd9c1" data-original="#b94137" style="" class=""/><g fill="#428dc5"><path d="m312 264h48v8h-48z" fill="#190933" data-original="#428dc5" style="" class=""/><path d="m384 264h48v8h-48z" fill="#190933" data-original="#428dc5" style="" class=""/><path d="m312 344h48v8h-48z" fill="#190933" data-original="#428dc5" style="" class=""/><path d="m384 344h48v8h-48z" fill="#190933" data-original="#428dc5" style="" class=""/><path d="m312 424h48v8h-48z" fill="#190933" data-original="#428dc5" style="" class=""/><path d="m240 344h48v8h-48z" fill="#190933" data-original="#428dc5" style="" class=""/><path d="m240 424h48v8h-48z" fill="#190933" data-original="#428dc5" style="" class=""/><path d="m384 424h48v8h-48z" fill="#190933" data-original="#428dc5" style="" class=""/></g><path d="m240 312h48v8h-48z" fill="#5dd9c1" data-original="#da922a" style="" class=""/></g></g></svg>
