<?xml version="1.0"?>
<svg xmlns="http://www.w3.org/2000/svg" xmlns:xlink="http://www.w3.org/1999/xlink" xmlns:svgjs="http://svgjs.com/svgjs" version="1.1" width="512" height="512" x="0" y="0" viewBox="0 0 512 512" style="enable-background:new 0 0 512 512" xml:space="preserve" class=""><g>
<g xmlns="http://www.w3.org/2000/svg">
	<path style="" d="M105.93,512c-4.302,0-7.789-3.487-7.789-7.789V490.71c0-4.302,3.487-7.789,7.789-7.789   s7.789,3.487,7.789,7.789v13.501C113.719,508.513,110.232,512,105.93,512z" fill="#3e3e3e" data-original="#253a4c" class=""/>
	<path style="" d="M408.145,512c-4.302,0-7.789-3.487-7.789-7.789V490.71c0-4.302,3.487-7.789,7.789-7.789   s7.789,3.487,7.789,7.789v13.501C415.934,508.513,412.447,512,408.145,512z" fill="#3e3e3e" data-original="#253a4c" class=""/>
</g>
<path xmlns="http://www.w3.org/2000/svg" style="" d="M415.656,490.191H96.342c-7.61,0-13.779-6.169-13.779-13.779V13.779C82.563,6.169,88.732,0,96.342,0  h319.315c7.61,0,13.779,6.169,13.779,13.779v462.633C429.435,484.022,423.266,490.191,415.656,490.191z" fill="#1fc52d" data-original="#455d75" class=""/>
<path xmlns="http://www.w3.org/2000/svg" style="" d="M415.125,0h-47.402c7.903,0,14.31,6.407,14.31,14.31v461.571c0,7.903-6.407,14.31-14.31,14.31h47.402  c7.903,0,14.31-6.407,14.31-14.31V14.31C429.435,6.407,423.028,0,415.125,0z" fill="#149a47" data-original="#3b4f66" class=""/>
<path xmlns="http://www.w3.org/2000/svg" style="" d="M329.08,361.931H119.567c-2.943,0-5.329-2.386-5.329-5.329V38.043c0-2.943,2.386-5.329,5.329-5.329  H329.08c2.943,0,5.329,2.386,5.329,5.329v318.559C334.409,359.545,332.023,361.931,329.08,361.931z" fill="#e6e9ed" data-original="#e6e9ed" class=""/>
<g xmlns="http://www.w3.org/2000/svg">
	<rect x="114.239" y="107.23" style="" width="220.17" height="15.578" fill="#cfd2dc" data-original="#cfd2dc" class=""/>
	<rect x="114.239" y="189.53" style="" width="220.17" height="15.578" fill="#cfd2dc" data-original="#cfd2dc" class=""/>
</g>
<g xmlns="http://www.w3.org/2000/svg">
	<path style="" d="M145.691,114.759h-31.453V91.722c0-8.499,6.89-15.389,15.389-15.389h0.675   c8.499,0,15.389,6.89,15.389,15.389L145.691,114.759L145.691,114.759z" fill="#d5d2d2" data-original="#ffffff" class=""/>
	<path style="" d="M177.145,114.759h-31.453V91.151c0-8.184,6.634-14.818,14.818-14.818h1.817   c8.184,0,14.818,6.634,14.818,14.818L177.145,114.759L177.145,114.759z" fill="#d5d2d2" data-original="#ffffff" class=""/>
	<path style="" d="M208.598,114.759h-31.453V91.151c0-8.184,6.634-14.818,14.818-14.818h1.817   c8.184,0,14.818,6.634,14.818,14.818L208.598,114.759L208.598,114.759z" fill="#d5d2d2" data-original="#ffffff" class=""/>
	<path style="" d="M129.965,60.755c-4.302,0-7.789,3.487-7.789,7.789v11.77c0,4.302,3.487,3.808,7.789,3.808   s7.789,0.494,7.789-3.808v-11.77C137.755,64.242,134.268,60.755,129.965,60.755z M161.419,60.755c-4.302,0-7.789,3.487-7.789,7.789   v11.77c0,4.302,3.487,3.808,7.789,3.808s7.789,0.494,7.789-3.808v-11.77C169.207,64.242,165.72,60.755,161.419,60.755z    M192.871,60.755c-4.302,0-7.789,3.487-7.789,7.789v11.77c0,4.302,3.487,3.808,7.789,3.808s7.789,0.494,7.789-3.808v-11.77   C200.66,64.242,197.173,60.755,192.871,60.755z" fill="#d5d2d2" data-original="#ffffff" class=""/>
</g>
<g xmlns="http://www.w3.org/2000/svg">
	<path style="" d="M240.05,114.759h-31.453V91.151c0-8.184,6.634-14.818,14.818-14.818h1.817   c8.184,0,14.818,6.634,14.818,14.818L240.05,114.759L240.05,114.759z" fill="#d385b8" data-original="#fdc74f" class=""/>
	<path style="" d="M224.324,84.122c-4.302,0-7.789-3.487-7.789-7.789v-7.789c0-4.302,3.487-7.789,7.789-7.789   s7.789,3.487,7.789,7.789v7.789C232.113,80.634,228.626,84.122,224.324,84.122z" fill="#d385b8" data-original="#fdc74f" class=""/>
	<path style="" d="M271.503,114.759H240.05V91.151c0-8.184,6.634-14.818,14.818-14.818h1.817   c8.184,0,14.818,6.634,14.818,14.818L271.503,114.759L271.503,114.759z" fill="#d385b8" data-original="#fdc74f" class=""/>
	<path style="" d="M255.776,84.122c-4.302,0-7.789-3.487-7.789-7.789v-7.789c0-4.302,3.487-7.789,7.789-7.789   c4.302,0,7.789,3.487,7.789,7.789v7.789C263.565,80.634,260.078,84.122,255.776,84.122z" fill="#d385b8" data-original="#fdc74f" class=""/>
</g>
<g xmlns="http://www.w3.org/2000/svg">
	<path style="" d="M302.956,114.759h-31.453V91.151c0-8.184,6.634-14.818,14.818-14.818h1.817   c8.184,0,14.818,6.634,14.818,14.818L302.956,114.759L302.956,114.759z" fill="#2ed541" data-original="#6186e4" class=""/>
	<path style="" d="M287.229,84.122c-4.302,0-7.789-3.487-7.789-7.789v-7.789c0-4.302,3.487-7.789,7.789-7.789   s7.789,3.487,7.789,7.789v7.789C295.018,80.634,291.531,84.122,287.229,84.122z" fill="#2ed541" data-original="#6186e4" class=""/>
	<path style="" d="M334.409,114.759h-31.453V91.151c0-8.184,6.634-14.818,14.818-14.818h1.817   c8.184,0,14.818,6.634,14.818,14.818L334.409,114.759L334.409,114.759z" fill="#2ed541" data-original="#6186e4" class=""/>
	<path style="" d="M318.682,84.122c-4.302,0-7.789-3.487-7.789-7.789v-7.789c0-4.302,3.487-7.789,7.789-7.789   s7.789,3.487,7.789,7.789v7.789C326.471,80.634,322.984,84.122,318.682,84.122z" fill="#2ed541" data-original="#6186e4" class=""/>
</g>
<g xmlns="http://www.w3.org/2000/svg">
	<path style="" d="M145.691,361.931h-26.266c-2.865,0-5.187-2.322-5.187-5.187v-18.421   c0-8.184,6.634-14.818,14.818-14.818h1.817c8.184,0,14.818,6.634,14.818,14.818V361.931z" fill="#d385b8" data-original="#fdc74f" class=""/>
	<path style="" d="M177.145,361.931h-31.453v-23.608c0-8.184,6.634-14.818,14.818-14.818h1.817   c8.184,0,14.818,6.634,14.818,14.818L177.145,361.931L177.145,361.931z" fill="#d385b8" data-original="#fdc74f" class=""/>
	<path style="" d="M161.419,331.294c-4.302,0-7.789-3.487-7.789-7.789v-7.789c0-4.302,3.487-7.789,7.789-7.789   s7.789,3.487,7.789,7.789v7.789C169.207,327.807,165.72,331.294,161.419,331.294z" fill="#d385b8" data-original="#fdc74f" class=""/>
	<path style="" d="M129.965,331.294c-4.302,0-7.789-3.487-7.789-7.789v-7.789c0-4.302,3.487-7.789,7.789-7.789   s7.789,3.487,7.789,7.789v7.789C137.755,327.807,134.268,331.294,129.965,331.294z" fill="#d385b8" data-original="#fdc74f" class=""/>
	<path style="" d="M208.598,361.931h-31.453v-23.608c0-8.184,6.634-14.818,14.818-14.818h1.817   c8.184,0,14.818,6.634,14.818,14.818L208.598,361.931L208.598,361.931z" fill="#d385b8" data-original="#fdc74f" class=""/>
	<path style="" d="M192.871,331.294c-4.302,0-7.789-3.487-7.789-7.789v-7.789c0-4.302,3.487-7.789,7.789-7.789   s7.789,3.487,7.789,7.789v7.789C200.66,327.807,197.173,331.294,192.871,331.294z" fill="#d385b8" data-original="#fdc74f" class=""/>
</g>
<g xmlns="http://www.w3.org/2000/svg">
	<path style="" d="M240.05,361.931h-31.453v-23.608c0-8.184,6.634-14.818,14.818-14.818h1.817   c8.184,0,14.818,6.634,14.818,14.818L240.05,361.931L240.05,361.931z" fill="#8e1ca5" data-original="#ff8dc8" class=""/>
	<path style="" d="M224.324,331.294c-4.302,0-7.789-3.487-7.789-7.789v-7.789c0-4.302,3.487-7.789,7.789-7.789   s7.789,3.487,7.789,7.789v7.789C232.113,327.807,228.626,331.294,224.324,331.294z" fill="#8e1ca5" data-original="#ff8dc8" class=""/>
	<path style="" d="M271.503,361.931H240.05v-23.608c0-8.184,6.634-14.818,14.818-14.818h1.817   c8.184,0,14.818,6.634,14.818,14.818L271.503,361.931L271.503,361.931z" fill="#8e1ca5" data-original="#ff8dc8" class=""/>
	<path style="" d="M255.776,331.294c-4.302,0-7.789-3.487-7.789-7.789v-7.789c0-4.302,3.487-7.789,7.789-7.789   c4.302,0,7.789,3.487,7.789,7.789v7.789C263.565,327.807,260.078,331.294,255.776,331.294z" fill="#8e1ca5" data-original="#ff8dc8" class=""/>
	<path style="" d="M302.956,361.931h-31.453v-23.608c0-8.184,6.634-14.818,14.818-14.818h1.817   c8.184,0,14.818,6.634,14.818,14.818L302.956,361.931L302.956,361.931z" fill="#8e1ca5" data-original="#ff8dc8" class=""/>
	<path style="" d="M287.229,331.294c-4.302,0-7.789-3.487-7.789-7.789v-7.789c0-4.302,3.487-7.789,7.789-7.789   s7.789,3.487,7.789,7.789v7.789C295.018,327.807,291.531,331.294,287.229,331.294z" fill="#8e1ca5" data-original="#ff8dc8" class=""/>
	<path style="" d="M329.222,361.931h-26.266v-23.608c0-8.184,6.634-14.818,14.818-14.818h1.817   c8.184,0,14.818,6.634,14.818,14.818v18.421C334.409,359.609,332.086,361.931,329.222,361.931z" fill="#8e1ca5" data-original="#ff8dc8" class=""/>
	<path style="" d="M318.682,331.294c-4.302,0-7.789-3.487-7.789-7.789v-7.789c0-4.302,3.487-7.789,7.789-7.789   s7.789,3.487,7.789,7.789v7.789C326.471,327.807,322.984,331.294,318.682,331.294z" fill="#8e1ca5" data-original="#ff8dc8" class=""/>
</g>
<path xmlns="http://www.w3.org/2000/svg" style="" d="M138.702,197.323H114.24v-26.704c0-6.474,5.248-11.722,11.722-11.722h1.02  c6.474,0,11.722,5.248,11.722,11.722v26.704H138.702z" fill="#67aaf1" data-original="#00c6c8" class=""/>
<g xmlns="http://www.w3.org/2000/svg">
	<path style="" d="M142.279,287.416c-4.302,0-7.789-3.487-7.789-7.789v-31.416c0-4.302,3.487-7.789,7.789-7.789   s7.789,3.487,7.789,7.789v31.416C150.068,283.928,146.581,287.416,142.279,287.416z" fill="#149a47" data-original="#3b4f66" class=""/>
	<circle style="" cx="142.279" cy="228.35" r="7.789" fill="#149a47" data-original="#3b4f66" class=""/>
	<path style="" d="M175.397,287.416c-4.302,0-7.789-3.487-7.789-7.789v-31.416c0-4.302,3.487-7.789,7.789-7.789   s7.789,3.487,7.789,7.789v31.416C183.186,283.928,179.699,287.416,175.397,287.416z" fill="#149a47" data-original="#3b4f66" class=""/>
	<circle style="" cx="175.399" cy="228.35" r="7.789" fill="#149a47" data-original="#3b4f66" class=""/>
	<path style="" d="M210.303,287.416c-4.302,0-7.789-3.487-7.789-7.789v-31.416c0-4.302,3.487-7.789,7.789-7.789   s7.789,3.487,7.789,7.789v31.416C218.092,283.928,214.605,287.416,210.303,287.416z" fill="#149a47" data-original="#3b4f66" class=""/>
	<circle style="" cx="210.299" cy="228.35" r="7.789" fill="#149a47" data-original="#3b4f66" class=""/>
	<path style="" d="M243.421,287.416c-4.302,0-7.789-3.487-7.789-7.789v-31.416c0-4.302,3.487-7.789,7.789-7.789   s7.789,3.487,7.789,7.789v31.416C251.21,283.928,247.723,287.416,243.421,287.416z" fill="#149a47" data-original="#3b4f66" class=""/>
	<circle style="" cx="243.419" cy="228.35" r="7.789" fill="#149a47" data-original="#3b4f66" class=""/>
	<path style="" d="M273.77,287.416c-4.302,0-7.789-3.487-7.789-7.789v-31.416c0-4.302,3.487-7.789,7.789-7.789   s7.789,3.487,7.789,7.789v31.416C281.559,283.928,278.072,287.416,273.77,287.416z" fill="#149a47" data-original="#3b4f66" class=""/>
	<circle style="" cx="273.769" cy="228.35" r="7.789" fill="#149a47" data-original="#3b4f66" class=""/>
	<path style="" d="M306.887,287.416c-4.302,0-7.789-3.487-7.789-7.789v-31.416c0-4.302,3.487-7.789,7.789-7.789   s7.789,3.487,7.789,7.789v31.416C314.676,283.928,311.189,287.416,306.887,287.416z" fill="#149a47" data-original="#3b4f66" class=""/>
	<circle style="" cx="306.889" cy="228.35" r="7.789" fill="#149a47" data-original="#3b4f66" class=""/>
</g>
<g xmlns="http://www.w3.org/2000/svg">
	<path style="" d="M126.47,169.455c-4.302,0-7.789-3.487-7.789-7.789v-7.789c0-4.302,3.487-7.789,7.789-7.789   c4.302,0,7.789,3.487,7.789,7.789v7.789C134.259,165.968,130.772,169.455,126.47,169.455z" fill="#67aaf1" data-original="#00c6c8" class=""/>
	<path style="" d="M163.165,197.323h-24.463v-27.139c0-6.234,5.053-11.287,11.287-11.287h1.89   c6.234,0,11.287,5.053,11.287,11.287v27.139H163.165z" fill="#67aaf1" data-original="#00c6c8" class=""/>
	<path style="" d="M150.934,169.455c-4.302,0-7.789-3.487-7.789-7.789v-7.789c0-4.302,3.487-7.789,7.789-7.789   s7.789,3.487,7.789,7.789v7.789C158.723,165.968,155.235,169.455,150.934,169.455z" fill="#67aaf1" data-original="#00c6c8" class=""/>
	<path style="" d="M187.628,197.323h-24.463v-27.139c0-6.234,5.053-11.287,11.287-11.287h1.89   c6.234,0,11.287,5.053,11.287,11.287v27.139H187.628z" fill="#67aaf1" data-original="#00c6c8" class=""/>
	<path style="" d="M175.397,169.455c-4.302,0-7.789-3.487-7.789-7.789v-7.789c0-4.302,3.487-7.789,7.789-7.789   s7.789,3.487,7.789,7.789v7.789C183.186,165.968,179.699,169.455,175.397,169.455z" fill="#67aaf1" data-original="#00c6c8" class=""/>
	<path style="" d="M212.092,197.323H187.63v-27.139c0-6.234,5.053-11.287,11.287-11.287h1.89   c6.234,0,11.287,5.053,11.287,11.287v27.139H212.092z" fill="#67aaf1" data-original="#00c6c8" class=""/>
	<path style="" d="M199.86,169.455c-4.302,0-7.789-3.487-7.789-7.789v-7.789c0-4.302,3.487-7.789,7.789-7.789   s7.789,3.487,7.789,7.789v7.789C207.649,165.968,204.162,169.455,199.86,169.455z" fill="#67aaf1" data-original="#00c6c8" class=""/>
	<path style="" d="M236.555,197.323h-24.463v-27.139c0-6.234,5.053-11.287,11.287-11.287h1.89   c6.234,0,11.287,5.053,11.287,11.287v27.139H236.555z" fill="#67aaf1" data-original="#00c6c8" class=""/>
	<path style="" d="M224.324,169.455c-4.302,0-7.789-3.487-7.789-7.789v-7.789c0-4.302,3.487-7.789,7.789-7.789   s7.789,3.487,7.789,7.789v7.789C232.113,165.968,228.626,169.455,224.324,169.455z" fill="#67aaf1" data-original="#00c6c8" class=""/>
	<path style="" d="M261.019,197.323h-24.463v-27.139c0-6.234,5.053-11.287,11.287-11.287h1.89   c6.234,0,11.287,5.053,11.287,11.287v27.139H261.019z" fill="#67aaf1" data-original="#00c6c8" class=""/>
	<path style="" d="M248.787,169.455c-4.302,0-7.789-3.487-7.789-7.789v-7.789c0-4.302,3.487-7.789,7.789-7.789   s7.789,3.487,7.789,7.789v7.789C256.576,165.968,253.089,169.455,248.787,169.455z" fill="#67aaf1" data-original="#00c6c8" class=""/>
	<path style="" d="M285.482,197.323h-24.463v-27.139c0-6.234,5.053-11.287,11.287-11.287h1.89   c6.234,0,11.287,5.053,11.287,11.287L285.482,197.323L285.482,197.323z" fill="#67aaf1" data-original="#00c6c8" class=""/>
	<path style="" d="M273.25,169.455c-4.302,0-7.789-3.487-7.789-7.789v-7.789c0-4.302,3.487-7.789,7.789-7.789   s7.789,3.487,7.789,7.789v7.789C281.039,165.968,277.552,169.455,273.25,169.455z" fill="#67aaf1" data-original="#00c6c8" class=""/>
	<path style="" d="M309.945,197.323h-24.463v-27.139c0-6.234,5.053-11.287,11.287-11.287h1.89   c6.234,0,11.287,5.053,11.287,11.287L309.945,197.323L309.945,197.323z" fill="#67aaf1" data-original="#00c6c8" class=""/>
	<path style="" d="M297.714,169.455c-4.302,0-7.789-3.487-7.789-7.789v-7.789c0-4.302,3.487-7.789,7.789-7.789   s7.789,3.487,7.789,7.789v7.789C305.503,165.968,302.015,169.455,297.714,169.455z" fill="#67aaf1" data-original="#00c6c8" class=""/>
	<path style="" d="M334.409,197.323h-24.463v-27.139c0-6.234,5.053-11.287,11.287-11.287h1.89   c6.234,0,11.287,5.053,11.287,11.287L334.409,197.323L334.409,197.323z" fill="#67aaf1" data-original="#00c6c8" class=""/>
	<path style="" d="M322.177,169.455c-4.302,0-7.789-3.487-7.789-7.789v-7.789c0-4.302,3.487-7.789,7.789-7.789   s7.789,3.487,7.789,7.789v7.789C329.966,165.968,326.479,169.455,322.177,169.455z" fill="#67aaf1" data-original="#00c6c8" class=""/>
</g>
<g xmlns="http://www.w3.org/2000/svg">
	<circle style="" cx="370.759" cy="197.32" r="7.789" fill="#d5d2d2" data-original="#ffffff" class=""/>
	<circle style="" cx="395.679" cy="197.32" r="7.789" fill="#d5d2d2" data-original="#ffffff" class=""/>
	<circle style="" cx="370.759" cy="222.51" r="7.789" fill="#d5d2d2" data-original="#ffffff" class=""/>
	<circle style="" cx="395.679" cy="222.51" r="7.789" fill="#d5d2d2" data-original="#ffffff" class=""/>
	<circle style="" cx="370.759" cy="248.21" r="7.789" fill="#d5d2d2" data-original="#ffffff" class=""/>
	<circle style="" cx="383.479" cy="271.71" r="7.789" fill="#d5d2d2" data-original="#ffffff" class=""/>
	<circle style="" cx="395.679" cy="248.21" r="7.789" fill="#d5d2d2" data-original="#ffffff" class=""/>
</g>
<g xmlns="http://www.w3.org/2000/svg">
	<path style="" d="M159.085,450.726h-39.983c-2.685,0-4.862-2.177-4.862-4.862v-38.048   c0-2.685,2.177-4.862,4.862-4.862h39.983c2.685,0,4.862,2.177,4.862,4.862v38.048C163.947,448.549,161.77,450.726,159.085,450.726z   " fill="#3e3e3e" data-original="#253a4c" class=""/>
	<path style="" d="M244.315,450.726h-39.983c-2.685,0-4.862-2.177-4.862-4.862v-38.048   c0-2.685,2.177-4.862,4.862-4.862h39.983c2.685,0,4.862,2.177,4.862,4.862v38.048C249.177,448.549,247.001,450.726,244.315,450.726   z" fill="#3e3e3e" data-original="#253a4c" class=""/>
</g>
<circle xmlns="http://www.w3.org/2000/svg" style="" cx="370.759" cy="197.32" r="2.832" fill="#149a47" data-original="#3b4f66" class=""/>
<g xmlns="http://www.w3.org/2000/svg">
	<path style="" d="M329.546,450.726h-39.983c-2.685,0-4.862-2.177-4.862-4.862v-38.048   c0-2.685,2.177-4.862,4.862-4.862h39.983c2.685,0,4.862,2.177,4.862,4.862v38.048C334.409,448.549,332.232,450.726,329.546,450.726   z" fill="#3e3e3e" data-original="#253a4c" class=""/>
	<path style="" d="M404.688,169.455h-42.417c-2.408,0-4.361-1.952-4.361-4.361v-52.379   c0-2.408,1.952-4.361,4.361-4.361h42.417c2.408,0,4.361,1.952,4.361,4.361v52.379C409.049,167.503,407.097,169.455,404.688,169.455   z" fill="#3e3e3e" data-original="#253a4c" class=""/>
</g>
<path xmlns="http://www.w3.org/2000/svg" style="" d="M401.927,162.791h-36.895c-0.853,0-1.544-0.691-1.544-1.544v-44.684c0-0.853,0.691-1.544,1.544-1.544  h36.895c0.853,0,1.544,0.691,1.544,1.544v44.684C403.472,162.1,402.78,162.791,401.927,162.791z" fill="#e6e9ed" data-original="#e6e9ed" class=""/>
<path xmlns="http://www.w3.org/2000/svg" style="" d="M403.472,310.004h-36.814c-4.302,0-7.789-3.487-7.789-7.789s3.487-7.789,7.789-7.789h36.814  c4.302,0,7.789,3.487,7.789,7.789S407.773,310.004,403.472,310.004z" fill="#3e3e3e" data-original="#ea3939" class=""/>
<g xmlns="http://www.w3.org/2000/svg">
	<path style="" d="M403.472,373.355c-4.302,0-7.789-3.487-7.789-7.789v-18.694c0-4.302,3.487-7.789,7.789-7.789   s7.789,3.487,7.789,7.789v18.694C411.261,369.868,407.773,373.355,403.472,373.355z" fill="#cfd2dc" data-original="#cfd2dc" class=""/>
	<rect x="114.239" y="271.84" style="" width="220.17" height="15.578" fill="#cfd2dc" data-original="#cfd2dc" class=""/>
</g>
<g xmlns="http://www.w3.org/2000/svg">
	<path style="" d="M129.965,60.755c-4.302,0-7.789,3.487-7.789,7.789v1.385h15.578v-1.385   C137.755,64.242,134.268,60.755,129.965,60.755z" fill="#149a47" data-original="#3b4f66" class=""/>
	<path style="" d="M192.871,60.755c-4.302,0-7.789,3.487-7.789,7.789v1.385h15.578v-1.385   C200.66,64.242,197.173,60.755,192.871,60.755z" fill="#149a47" data-original="#3b4f66" class=""/>
	<path style="" d="M161.419,60.755c-4.302,0-7.789,3.487-7.789,7.789v1.385h15.578v-1.385   C169.207,64.242,165.72,60.755,161.419,60.755z" fill="#149a47" data-original="#3b4f66" class=""/>
	<path style="" d="M126.47,146.088c-4.302,0-7.789,3.487-7.789,7.789v1.385h15.578v-1.385   C134.259,149.575,130.772,146.088,126.47,146.088z" fill="#149a47" data-original="#3b4f66" class=""/>
	<path style="" d="M150.934,146.088c-4.302,0-7.789,3.487-7.789,7.789v1.385h15.578v-1.385   C158.723,149.575,155.235,146.088,150.934,146.088z" fill="#149a47" data-original="#3b4f66" class=""/>
	<path style="" d="M175.397,146.088c-4.302,0-7.789,3.487-7.789,7.789v1.385h15.578v-1.385   C183.186,149.575,179.699,146.088,175.397,146.088z" fill="#149a47" data-original="#3b4f66" class=""/>
	<path style="" d="M199.86,146.088c-4.302,0-7.789,3.487-7.789,7.789v1.385h15.578v-1.385   C207.649,149.575,204.162,146.088,199.86,146.088z" fill="#149a47" data-original="#3b4f66" class=""/>
	<circle style="" cx="395.679" cy="197.32" r="2.832" fill="#149a47" data-original="#3b4f66" class=""/>
	<circle style="" cx="370.759" cy="222.51" r="2.832" fill="#149a47" data-original="#3b4f66" class=""/>
	<circle style="" cx="395.679" cy="222.51" r="2.832" fill="#149a47" data-original="#3b4f66" class=""/>
	<circle style="" cx="370.759" cy="248.21" r="2.832" fill="#149a47" data-original="#3b4f66" class=""/>
	<circle style="" cx="383.479" cy="271.84" r="2.832" fill="#149a47" data-original="#3b4f66" class=""/>
	<circle style="" cx="395.679" cy="248.21" r="2.832" fill="#149a47" data-original="#3b4f66" class=""/>
	<path style="" d="M224.324,146.088c-4.302,0-7.789,3.487-7.789,7.789v1.385h15.578v-1.385   C232.113,149.575,228.626,146.088,224.324,146.088z" fill="#149a47" data-original="#3b4f66" class=""/>
	<path style="" d="M248.787,146.088c-4.302,0-7.789,3.487-7.789,7.789v1.385h15.578v-1.385   C256.576,149.575,253.089,146.088,248.787,146.088z" fill="#149a47" data-original="#3b4f66" class=""/>
	<path style="" d="M273.25,146.088c-4.302,0-7.789,3.487-7.789,7.789v1.385h15.578v-1.385   C281.039,149.575,277.552,146.088,273.25,146.088z" fill="#149a47" data-original="#3b4f66" class=""/>
	<path style="" d="M297.714,146.088c-4.302,0-7.789,3.487-7.789,7.789v1.385h15.578v-1.385   C305.503,149.575,302.015,146.088,297.714,146.088z" fill="#149a47" data-original="#3b4f66" class=""/>
	<path style="" d="M322.177,146.088c-4.302,0-7.789,3.487-7.789,7.789v1.385h15.578v-1.385   C329.966,149.575,326.479,146.088,322.177,146.088z" fill="#149a47" data-original="#3b4f66" class=""/>
	<path style="" d="M129.965,307.927c-4.302,0-7.789,3.487-7.789,7.789v1.385h15.578v-1.385   C137.755,311.414,134.268,307.927,129.965,307.927z" fill="#149a47" data-original="#3b4f66" class=""/>
	<path style="" d="M161.419,307.927c-4.302,0-7.789,3.487-7.789,7.789v1.385h15.578v-1.385   C169.207,311.414,165.72,307.927,161.419,307.927z" fill="#149a47" data-original="#3b4f66" class=""/>
	<path style="" d="M192.871,307.927c-4.302,0-7.789,3.487-7.789,7.789v1.385h15.578v-1.385   C200.66,311.414,197.173,307.927,192.871,307.927z" fill="#149a47" data-original="#3b4f66" class=""/>
	<path style="" d="M224.324,307.927c-4.302,0-7.789,3.487-7.789,7.789v1.385h15.578v-1.385   C232.113,311.414,228.626,307.927,224.324,307.927z" fill="#149a47" data-original="#3b4f66" class=""/>
	<path style="" d="M255.776,307.927c-4.302,0-7.789,3.487-7.789,7.789v1.385h15.578v-1.385   C263.565,311.414,260.078,307.927,255.776,307.927z" fill="#149a47" data-original="#3b4f66" class=""/>
	<path style="" d="M287.229,307.927c-4.302,0-7.789,3.487-7.789,7.789v1.385h15.578v-1.385   C295.018,311.414,291.531,307.927,287.229,307.927z" fill="#149a47" data-original="#3b4f66" class=""/>
	<path style="" d="M318.682,307.927c-4.302,0-7.789,3.487-7.789,7.789v1.385h15.578v-1.385   C326.471,311.414,322.984,307.927,318.682,307.927z" fill="#149a47" data-original="#3b4f66" class=""/>
	<path style="" d="M224.324,60.755c-4.302,0-7.789,3.487-7.789,7.789v1.385h15.578v-1.385   C232.113,64.242,228.626,60.755,224.324,60.755z" fill="#149a47" data-original="#3b4f66" class=""/>
	<path style="" d="M255.776,60.755c-4.302,0-7.789,3.487-7.789,7.789v1.385h15.578v-1.385   C263.566,64.242,260.078,60.755,255.776,60.755z" fill="#149a47" data-original="#3b4f66" class=""/>
	<path style="" d="M287.229,60.755c-4.302,0-7.789,3.487-7.789,7.789v1.385h15.578v-1.385   C295.018,64.242,291.531,60.755,287.229,60.755z" fill="#149a47" data-original="#3b4f66" class=""/>
	<path style="" d="M318.682,60.755c-4.302,0-7.789,3.487-7.789,7.789v1.385h15.578v-1.385   C326.471,64.242,322.984,60.755,318.682,60.755z" fill="#149a47" data-original="#3b4f66" class=""/>
</g>
<rect xmlns="http://www.w3.org/2000/svg" x="364.789" y="300.01" style="" width="39.984" height="4.673" fill="#ffcccc" data-original="#ffcccc" class=""/>
<g xmlns="http://www.w3.org/2000/svg">
</g>
<g xmlns="http://www.w3.org/2000/svg">
</g>
<g xmlns="http://www.w3.org/2000/svg">
</g>
<g xmlns="http://www.w3.org/2000/svg">
</g>
<g xmlns="http://www.w3.org/2000/svg">
</g>
<g xmlns="http://www.w3.org/2000/svg">
</g>
<g xmlns="http://www.w3.org/2000/svg">
</g>
<g xmlns="http://www.w3.org/2000/svg">
</g>
<g xmlns="http://www.w3.org/2000/svg">
</g>
<g xmlns="http://www.w3.org/2000/svg">
</g>
<g xmlns="http://www.w3.org/2000/svg">
</g>
<g xmlns="http://www.w3.org/2000/svg">
</g>
<g xmlns="http://www.w3.org/2000/svg">
</g>
<g xmlns="http://www.w3.org/2000/svg">
</g>
<g xmlns="http://www.w3.org/2000/svg">
</g>
</g></svg>
