<?xml version="1.0"?>
<svg xmlns="http://www.w3.org/2000/svg" xmlns:xlink="http://www.w3.org/1999/xlink" xmlns:svgjs="http://svgjs.com/svgjs" version="1.1" width="512" height="512" x="0" y="0" viewBox="0 0 512 512" style="enable-background:new 0 0 512 512" xml:space="preserve" class=""><g>
<g xmlns="http://www.w3.org/2000/svg">
	<path style="" d="M121.565,512c-4.214,0-7.629-3.415-7.629-7.629V489.81c0-4.213,3.415-7.629,7.629-7.629   s7.629,3.415,7.629,7.629v14.562C129.194,508.585,125.779,512,121.565,512z" fill="#190933" data-original="#253a4c" class=""/>
	<path style="" d="M390.936,512c-4.214,0-7.629-3.415-7.629-7.629V489.81c0-4.213,3.415-7.629,7.629-7.629   s7.629,3.415,7.629,7.629v14.562C398.565,508.585,395.15,512,390.936,512z" fill="#190933" data-original="#253a4c" class=""/>
</g>
<path xmlns="http://www.w3.org/2000/svg" style="" d="M410.975,489.81h-309.95c-5.876,0-10.64-4.764-10.64-10.64V10.64c0-5.876,4.764-10.64,10.64-10.64  h309.95c5.876,0,10.64,4.764,10.64,10.64v468.531C421.615,485.047,416.851,489.81,410.975,489.81z" fill="#b084cc" data-original="#00c6c8" class=""/>
<path xmlns="http://www.w3.org/2000/svg" style="" d="M410.792,0H277.347v107.507c0,103.256-83.706,186.962-186.962,186.962l0,0v184.52  c0,5.977,4.845,10.822,10.822,10.822h309.585c5.977,0,10.822-4.845,10.822-10.822V10.822C421.615,4.845,416.769,0,410.792,0z" fill="#665687" data-original="#00afaa" class=""/>
<g xmlns="http://www.w3.org/2000/svg">
	<path style="" d="M415.972,489.81h-87.526V0h87.526c3.117,0,5.643,2.526,5.643,5.643v478.524   C421.615,487.284,419.088,489.81,415.972,489.81z" fill="#190933" data-original="#3b4f66" class=""/>
	<path style="" d="M267.201,420.817H147.486c-4.017,0-7.273-3.256-7.273-7.273v-42.413   c0-4.017,3.256-7.273,7.273-7.273h119.715c4.017,0,7.273,3.256,7.273,7.273v42.413   C274.474,417.561,271.218,420.817,267.201,420.817z" fill="#190933" data-original="#3b4f66" class=""/>
</g>
<path xmlns="http://www.w3.org/2000/svg" style="" d="M267.076,363.858H147.611c-4.086,0-7.398,3.312-7.398,7.398v10.402h76.455  c21.627,0,39.16,17.532,39.16,39.16l0,0h11.249c4.086,0,7.398-3.312,7.398-7.398v-42.163  C274.474,367.17,271.162,363.858,267.076,363.858z" fill="#190933" data-original="#253a4c" class=""/>
<g xmlns="http://www.w3.org/2000/svg">
	<path style="" d="M395.221,181.385h-40.382c-4.214,0-7.629-3.415-7.629-7.629s3.415-7.629,7.629-7.629h40.382   c4.214,0,7.629,3.415,7.629,7.629S399.435,181.385,395.221,181.385z" fill="#5dd9c1" data-original="#f3e8d6" class=""/>
	<path style="" d="M395.221,210.34h-40.382c-4.214,0-7.629-3.415-7.629-7.629c0-4.213,3.415-7.629,7.629-7.629h40.382   c4.214,0,7.629,3.415,7.629,7.629C402.85,206.924,399.435,210.34,395.221,210.34z" fill="#5dd9c1" data-original="#f3e8d6" class=""/>
	<path style="" d="M395.221,239.294h-40.382c-4.214,0-7.629-3.415-7.629-7.629c0-4.213,3.415-7.629,7.629-7.629h40.382   c4.214,0,7.629,3.415,7.629,7.629C402.85,235.879,399.435,239.294,395.221,239.294z" fill="#5dd9c1" data-original="#f3e8d6" class=""/>
	<path style="" d="M395.221,268.249h-40.382c-4.214,0-7.629-3.415-7.629-7.629c0-4.213,3.415-7.629,7.629-7.629h40.382   c4.214,0,7.629,3.415,7.629,7.629C402.85,264.833,399.435,268.249,395.221,268.249z" fill="#5dd9c1" data-original="#f3e8d6" class=""/>
	<path style="" d="M395.221,297.203h-40.382c-4.214,0-7.629-3.415-7.629-7.629c0-4.213,3.415-7.629,7.629-7.629h40.382   c4.214,0,7.629,3.415,7.629,7.629S399.435,297.203,395.221,297.203z" fill="#5dd9c1" data-original="#f3e8d6" class=""/>
	<path style="" d="M395.221,326.158h-40.382c-4.214,0-7.629-3.415-7.629-7.629c0-4.213,3.415-7.629,7.629-7.629h40.382   c4.214,0,7.629,3.415,7.629,7.629C402.85,322.742,399.435,326.158,395.221,326.158z" fill="#5dd9c1" data-original="#f3e8d6" class=""/>
</g>
<g xmlns="http://www.w3.org/2000/svg">
	<path style="" d="M371.829,376.572h-16.99c-4.214,0-7.629-3.415-7.629-7.629s3.415-7.629,7.629-7.629h16.99   c4.214,0,7.629,3.415,7.629,7.629S376.043,376.572,371.829,376.572z" fill="#190933" data-original="#253a4c" class=""/>
	<path style="" d="M390.886,63.803h-31.711c-2.395,0-4.336,1.941-4.336,4.336v72.02c0,2.395,1.941,4.336,4.336,4.336   h31.711c2.395,0,4.336-1.941,4.336-4.336v-72.02C395.222,65.744,393.281,63.803,390.886,63.803z" fill="#190933" data-original="#253a4c" class=""/>
</g>
<path xmlns="http://www.w3.org/2000/svg" style="" d="M395.222,113.473h-40.383v26.686c0,2.395,1.941,4.336,4.336,4.336h31.711  c2.395,0,4.336-1.941,4.336-4.336V113.473z" fill="#5dd9c1" data-original="#f3e8d6" class=""/>
<circle xmlns="http://www.w3.org/2000/svg" style="" cx="396.27" cy="368.94" r="7.629" fill="#5dd9c1" data-original="#77d057" class=""/>
<g xmlns="http://www.w3.org/2000/svg">
	<circle style="" cx="122.12" cy="134.54" r="31.735" fill="#acfcd9" data-original="#86efef" class=""/>
	<circle style="" cx="250.27" cy="178.35" r="31.735" fill="#acfcd9" data-original="#86efef" class=""/>
	<circle style="" cx="165.37" cy="280.99" r="17.248" fill="#acfcd9" data-original="#86efef" class=""/>
	<circle style="" cx="311.2" cy="81.05" r="17.248" fill="#acfcd9" data-original="#86efef" class=""/>
	<circle style="" cx="304.94" cy="324.38" r="22.935" fill="#acfcd9" data-original="#86efef" class=""/>
	<circle style="" cx="218.54" cy="53.5" r="21.436" fill="#acfcd9" data-original="#86efef" class=""/>
</g>
<g xmlns="http://www.w3.org/2000/svg">
</g>
<g xmlns="http://www.w3.org/2000/svg">
</g>
<g xmlns="http://www.w3.org/2000/svg">
</g>
<g xmlns="http://www.w3.org/2000/svg">
</g>
<g xmlns="http://www.w3.org/2000/svg">
</g>
<g xmlns="http://www.w3.org/2000/svg">
</g>
<g xmlns="http://www.w3.org/2000/svg">
</g>
<g xmlns="http://www.w3.org/2000/svg">
</g>
<g xmlns="http://www.w3.org/2000/svg">
</g>
<g xmlns="http://www.w3.org/2000/svg">
</g>
<g xmlns="http://www.w3.org/2000/svg">
</g>
<g xmlns="http://www.w3.org/2000/svg">
</g>
<g xmlns="http://www.w3.org/2000/svg">
</g>
<g xmlns="http://www.w3.org/2000/svg">
</g>
<g xmlns="http://www.w3.org/2000/svg">
</g>
</g></svg>
