<?xml version="1.0"?>
<svg xmlns="http://www.w3.org/2000/svg" xmlns:xlink="http://www.w3.org/1999/xlink" xmlns:svgjs="http://svgjs.com/svgjs" version="1.1" width="512" height="512" x="0" y="0" viewBox="0 0 512 512" style="enable-background:new 0 0 512 512" xml:space="preserve" class=""><g><g xmlns="http://www.w3.org/2000/svg" id="flat"><path d="m472 376-8-8h-248v56l16-8 16 8 16-8 16 8 16-8 16 8 16-8 16 8 16-8 16 8 16-8 16 8 16-8 16 8 16-8 16 8z" fill="#190933" data-original="#6cbae5" style="" class=""/><g fill="#428dc5"><path d="m336 48h16v32h-16z" fill="#5dd9c1" data-original="#428dc5" style="" class=""/><path d="m304 48h16v32h-16z" fill="#5dd9c1" data-original="#428dc5" style="" class=""/><path d="m272 48h16v32h-16z" fill="#5dd9c1" data-original="#428dc5" style="" class=""/><path d="m240 48h16v32h-16z" fill="#5dd9c1" data-original="#428dc5" style="" class=""/><path d="m432 48h16v32h-16z" fill="#5dd9c1" data-original="#428dc5" style="" class=""/><path d="m400 48h16v32h-16z" fill="#5dd9c1" data-original="#428dc5" style="" class=""/><path d="m368 48h16v32h-16z" fill="#5dd9c1" data-original="#428dc5" style="" class=""/><path d="m432 368h16v32h-16z" fill="#5dd9c1" data-original="#428dc5" style="" class=""/><path d="m400 368h16v32h-16z" fill="#5dd9c1" data-original="#428dc5" style="" class=""/><path d="m368 368h16v32h-16z" fill="#5dd9c1" data-original="#428dc5" style="" class=""/></g><path d="m472 72-16 8h-240v-56l16 8 16-8 16 8 16-8 16 8 16-8 16 8 16-8 16 8 16-8 16 8 16-8 16 8 16-8 16 8 16-8z" fill="#190933" data-original="#6cbae5" style="" class=""/><path d="m472 376h-256l8-56-4.007-48.09a599.961 599.961 0 0 1 -.306-95.845l4.313-56.065-8-48h256l-8 48 4.313 56.065a599.961 599.961 0 0 1 -.306 95.845l-4.007 48.09z" fill="#b084cc" data-original="#4799cf" style="" class=""/><circle cx="344" cy="224" fill="#5dd9c1" r="88" data-original="#428dc5" style="" class=""/><ellipse cx="324" cy="224" fill="#acfcd9" rx="36" ry="40" data-original="#a45e14" style="" class=""/><path d="m280 400h-256l8-32v-224l-8-32h256l-8 32v224z" fill="#acfcd9" data-original="#fbb540" style="" class=""/><path d="m280 112h-256v-40l16 8 16-8 16 8 16-8 16 8 16-8 16 8 16-8 16 8 16-8 16 8 16-8 16 8 16-8 16 8 16-8z" fill="#b084cc" data-original="#ea9d2d" style="" class=""/><path d="m280 400h-256v40l16-8 16 8 16-8 16 8 16-8 16 8 16-8 16 8 16-8 16 8 16-8 16 8 16-8 16 8 16-8 16 8z" fill="#b084cc" data-original="#ea9d2d" style="" class=""/><circle cx="152" cy="248" fill="#190933" r="64" data-original="#6b9777" style="" class=""/><path d="m214 280h-90.55a85.634 85.634 0 0 0 -59.45 24v-70a26 26 0 0 1 26-26h100.073a85.63 85.63 0 0 0 47.5-14.382l2.427-1.618v62a26 26 0 0 1 -26 26z" fill="#b084cc" data-original="#ea9d2d" style="" class=""/><path d="m400 224a40 40 0 0 1 -80 0z" fill="#b084cc" data-original="#ea9d2d" style="" class=""/><path d="m352 488-32-16h-152l-40 16v-144l40 16h152l32-16z" fill="#665687" data-original="#dc4d41" style="" class=""/><path d="m128 408h24v16h-24z" fill="#190933" data-original="#b94137" style="" class=""/><path d="m128 440h24v16h-24z" fill="#190933" data-original="#b94137" style="" class=""/><path d="m128 376h24v16h-24z" fill="#190933" data-original="#b94137" style="" class=""/><path d="m328 408h24v16h-24z" fill="#190933" data-original="#b94137" style="" class=""/><path d="m328 440h24v16h-24z" fill="#190933" data-original="#b94137" style="" class=""/><path d="m328 376h24v16h-24z" fill="#190933" data-original="#b94137" style="" class=""/><circle cx="240" cy="416" fill="#5dd9c1" r="32" data-original="#fd9226" style="" class=""/></g></g></svg>
